<svg width="56" height="56" viewBox="0 0 56 56" fill="none" xmlns="http://www.w3.org/2000/svg">
<g opacity="0.3">
<g opacity="0.3">
<g opacity="0.3">
<path opacity="0.3" d="M55.9362 40.2693C55.9362 42.097 48.5423 43.6573 38.1092 44.2806C35.8434 46.0127 29.2337 47.2665 21.431 47.2665C11.759 47.2665 3.9173 45.3397 3.9173 42.963C3.9173 42.8036 3.9527 42.6478 4.02174 42.4937C1.46921 41.8455 0 41.084 0 40.2693C0 37.8927 12.5219 35.9658 27.9681 35.9658C43.4143 35.9658 55.9362 37.8927 55.9362 40.2693Z" fill="#1A1A5A"/>
</g>
</g>
</g>
<path d="M53.9855 38.872C53.5925 38.8543 52.0419 39.5627 51.9587 38.6435C51.8755 37.7226 51.7215 33.2685 49.923 32.9179C48.1263 32.5672 47.4554 33.1446 46.7492 35.2503C46.4836 36.0437 46.4022 36.9363 46.3721 37.7421C46.3243 39.0774 46.4217 40.1843 46.0712 40.2409C45.5101 40.3348 43.9647 40.4588 43.9647 40.4588C43.9647 40.4588 43.0726 41.385 42.9841 39.823C42.9558 39.3395 42.9133 38.4168 42.9983 37.3064C43.1841 34.8288 43.9984 31.4267 47.0023 29.9568C51.3515 27.8281 53.7093 34.1239 53.7571 34.9563C53.8031 35.7887 54.3802 38.8897 53.9855 38.872Z" fill="white"/>
<g opacity="0.3">
<g opacity="0.3">
<g opacity="0.3">
<path opacity="0.3" d="M46.1332 37.5559C46.0854 38.8912 46.4235 40.1841 46.073 40.2425C45.5119 40.3364 43.9665 40.4603 43.9665 40.4603C43.9665 40.4603 43.0744 41.3866 42.9859 39.8246C42.9576 39.3411 43.147 38.22 43.2319 37.1096C43.3718 37.5152 43.501 38.7283 44.7613 38.6876C45.4588 38.6646 45.8889 38.0394 46.1332 37.5559Z" fill="#1A1A5A"/>
</g>
</g>
</g>
<g opacity="0.3">
<g opacity="0.3">
<g opacity="0.3">
<path opacity="0.3" d="M53.9218 36.1958C53.8881 37.5311 54.1289 38.824 53.8793 38.8824C53.4775 38.9763 52.3694 39.1002 52.3694 39.1002C52.3694 39.1002 51.7303 40.0265 51.6666 38.4644C51.6471 37.981 51.7817 36.8599 51.8419 35.7495C51.9428 36.1551 52.0348 37.3682 52.9376 37.3275C53.4385 37.3044 53.7465 36.6811 53.9218 36.1958Z" fill="#1A1A5A"/>
</g>
</g>
</g>
<path d="M46.3757 39.033C46.3757 39.033 46.1473 35.112 47.4431 33.6315C48.7388 32.1509 49.8257 32.8487 50.4098 33.2649C50.9939 33.6811 51.525 35.5158 51.7161 36.2366C51.9073 36.9574 52.2667 39.1641 51.4471 39.1889C50.6257 39.2172 46.3757 39.033 46.3757 39.033Z" fill="#B2B2B2"/>
<path d="M47.1669 29.9072C47.1669 29.9072 43.7364 30.6794 43.0867 36.8796C42.9911 37.7828 42.9557 38.8029 42.9982 39.9505C42.9982 39.9505 43.0672 40.7421 42.5203 40.7421C41.9751 40.7421 31.0215 40.8006 31.0215 40.8006L29.9523 34.9563L33.0607 32.3423L38.9871 28.1787L42.4725 29.4042L43.4726 29.7567L42.676 29.8063L47.1669 29.9072Z" fill="white"/>
<g opacity="0.3">
<g opacity="0.3">
<g opacity="0.3">
<path opacity="0.3" d="M43 39.9522C43 39.9522 43.069 40.7438 42.522 40.7438C41.9768 40.7438 31.0233 40.8023 31.0233 40.8023L29.9541 34.958L33.0624 32.344L38.9889 28.1804L42.4742 29.4059L41.9945 29.7601C41.9945 29.7601 38.9853 30.7147 37.8931 34.958C36.801 39.2013 40.12 38.3867 41.1927 38.3867C41.6175 38.3867 42.7203 37.8678 43.0867 36.8795C42.9911 37.7827 42.9557 38.8028 43 39.9522Z" fill="#1A1A5A"/>
</g>
</g>
</g>
<path d="M44.2834 29.6061L39.4067 29.9709L36.8683 32.1776L35.9301 35.167L35.5478 40.8554C33.8874 40.859 29.9896 40.8607 28.2442 40.859C26.5449 40.8572 24.8225 40.8536 23.1161 40.8466C21.3779 40.8395 19.6555 40.8324 17.9881 40.8218C16.2002 40.8111 14.4743 40.8005 12.8582 40.7881C10.973 40.774 9.23829 40.7598 7.73014 40.7474C7.51772 40.7456 7.31062 40.7438 7.10882 40.7421C5.63784 40.7297 4.41114 40.7173 3.51191 40.7067C2.57374 40.696 1.81789 39.9327 1.81789 38.9941V30.697C1.81789 30.6244 1.81789 30.5518 1.81966 30.4792C1.83737 28.7064 2.08341 26.9885 2.53126 25.3486C3.02689 23.528 3.77035 21.8049 4.72445 20.218C5.57058 18.8101 6.57955 17.5102 7.73014 16.3396C8.16028 15.9021 8.60812 15.4842 9.07544 15.0857C10.2313 14.0957 11.5005 13.2279 12.8582 12.5001C14.4531 11.6447 16.1737 10.9841 17.9881 10.5502C19.6148 10.1606 21.3159 9.95337 23.0648 9.95337H23.1161C24.8845 9.95691 26.6015 10.173 28.2442 10.5732C30.0568 11.016 31.7792 11.6872 33.3741 12.5532C34.6946 13.2687 35.9284 14.1187 37.0559 15.0839C37.5604 15.5143 38.0437 15.9677 38.5021 16.4423C39.6102 17.5846 40.5856 18.8508 41.4051 20.2145C42.3592 21.8013 43.1027 23.5245 43.6001 25.3451C43.9718 26.7176 44.2055 28.1415 44.2834 29.6061Z" fill="white"/>
<g opacity="0.3">
<g opacity="0.3">
<g opacity="0.3">
<path opacity="0.3" d="M35.5478 40.8573C33.8874 40.8609 29.9896 40.8627 28.2442 40.8609C26.5449 40.8591 24.8225 40.8556 23.1161 40.8485C21.3779 40.8414 19.6555 40.8343 17.9881 40.8237C16.2002 40.8131 14.4743 40.8024 12.8582 40.79C10.973 40.7759 9.23829 40.7617 7.73014 40.7493C7.51772 40.7475 7.31062 40.7458 7.10882 40.744C5.63784 40.7316 4.41114 40.7192 3.51191 40.7086C2.57374 40.6979 1.81789 39.9346 1.81789 38.996V31.1842C2.75252 32.6647 4.70144 34.4906 8.63645 34.4906H28.1114C30.6056 34.4906 32.9758 33.4847 34.7654 31.7473C35.9708 30.5767 37.9251 29.4734 41.0016 29.4734C41.3591 29.4734 37.7357 30.4775 37.0825 32.0891C35.7159 35.4593 35.5478 40.8573 35.5478 40.8573Z" fill="#1A1A5A"/>
</g>
</g>
</g>
<path d="M13.2583 41.0378C13.1238 41.0378 12.991 41.0378 12.8565 41.036C10.8297 41.0219 9.15162 41.0077 7.72843 40.9953C7.62753 40.9935 7.53018 40.9935 7.43282 40.9917C7.32307 40.99 7.21509 40.99 7.10712 40.9882C5.9052 40.9776 4.72806 40.9652 3.51021 40.9528C2.99156 40.9475 2.50477 40.7403 2.14012 40.3719C1.77548 40.0035 1.57368 39.513 1.57368 38.9941V30.697C1.57368 30.6244 1.57368 30.55 1.57545 30.4774C1.59315 28.717 1.83566 26.9708 2.29589 25.2848C2.79153 23.466 3.53853 21.718 4.51564 20.0923C5.36708 18.6755 6.39021 17.3561 7.55673 16.1677C7.99041 15.7268 8.44711 15.2999 8.91796 14.8997C10.0916 13.8956 11.3802 13.0154 12.745 12.2857C14.3788 11.4091 16.1242 10.7467 17.9332 10.3146C19.6025 9.91436 21.3301 9.71069 23.0684 9.71069H23.1197C24.8775 9.71424 26.6228 9.92675 28.3062 10.3376C30.1153 10.7804 31.8606 11.4534 33.4945 12.3406C34.8221 13.0614 36.0753 13.9221 37.2188 14.8997C37.7286 15.3354 38.2207 15.7976 38.681 16.274C39.8032 17.4305 40.791 18.7144 41.6176 20.0905C42.5947 21.7163 43.3417 23.4625 43.8391 25.283C44.2215 26.6839 44.4534 28.1326 44.5313 29.5919L44.0409 29.6184C43.9648 28.1945 43.7382 26.7795 43.3647 25.4141C42.8797 23.6378 42.1504 21.9323 41.1963 20.3455C40.3892 19.0013 39.4244 17.7475 38.3269 16.6176C37.8773 16.1518 37.3959 15.7002 36.8984 15.2752C35.7797 14.3188 34.5566 13.4776 33.2591 12.7745C31.6624 11.9085 29.9578 11.2497 28.1894 10.8176C26.5432 10.4155 24.8368 10.2083 23.1197 10.2048H23.0702C21.3708 10.2048 19.6821 10.4032 18.0501 10.7945C16.2835 11.216 14.5771 11.866 12.9804 12.7214C11.6457 13.4351 10.3872 14.2958 9.24013 15.2769C8.78166 15.6683 8.33382 16.0863 7.91076 16.5166C6.76548 17.6731 5.76535 18.9624 4.93516 20.3455C3.98106 21.9323 3.25177 23.6378 2.76852 25.4141C2.31891 27.0593 2.08348 28.7648 2.06578 30.4827C2.06578 30.5535 2.06401 30.6261 2.06401 30.697V38.9941C2.06401 39.7946 2.71365 40.4516 3.51375 40.4604C4.73337 40.4728 5.90874 40.4852 7.11066 40.4959C7.21863 40.4976 7.32661 40.4976 7.43636 40.4994C7.53372 40.4994 7.63284 40.5012 7.73374 40.503C9.15693 40.5153 10.835 40.5295 12.8618 40.5437C13.6619 40.549 14.4514 40.5366 15.2887 40.5207C16.1206 40.5065 16.9809 40.4906 17.8837 40.4959L17.8801 40.9882C16.9845 40.9829 16.1259 40.9988 15.2975 41.013C14.5948 41.0254 13.9274 41.0378 13.2583 41.0378Z" fill="#1A1A5A"/>
<path d="M35.3018 40.852C35.2487 39.9576 35.2628 38.9145 35.3443 37.751C35.4646 36.0278 35.7248 34.634 36.139 33.4864C36.6223 32.1476 37.3056 31.1611 38.226 30.4722C39.035 29.8683 39.9926 29.5353 40.9945 29.5123H41.0087C41.0706 29.5105 41.1344 29.5105 41.1963 29.5123L41.1857 30.0047C41.1291 30.0029 41.0724 30.0029 41.0158 30.0047H41.0034C40.1059 30.0259 39.2474 30.3234 38.5199 30.8671C36.9356 32.0519 36.0824 34.2497 35.8328 37.7864C35.7532 38.9287 35.7372 39.9506 35.7903 40.8237L35.3018 40.852Z" fill="#1A1A5A"/>
<path d="M38.3197 36.9009L37.8312 36.8477C38.0011 35.268 38.3056 33.9911 38.764 32.9409L39.2137 33.1375C38.7747 34.1416 38.4826 35.3725 38.3197 36.9009Z" fill="#1A1A5A"/>
<path d="M40.1129 40.8519C40.0598 39.9611 40.074 38.9179 40.1554 37.7509C40.1766 37.4445 40.2032 37.1399 40.2351 36.8477L40.7236 36.9008C40.6935 37.1877 40.667 37.4852 40.6457 37.7863C40.5661 38.9303 40.5519 39.9522 40.6032 40.8235L40.1129 40.8519Z" fill="#1A1A5A"/>
<path d="M41.6194 33.1394L41.1697 32.9429C41.6565 31.8254 42.1663 31.0904 42.8726 30.483C43.6285 29.833 44.3896 29.5355 45.3366 29.5125L45.3472 30.0048C44.51 30.0243 43.8656 30.2793 43.193 30.8566C42.5451 31.4127 42.0743 32.0946 41.6194 33.1394Z" fill="#1A1A5A"/>
<path d="M48.5812 29.5142H41.0015V30.0065H48.5812V29.5142Z" fill="#1A1A5A"/>
<path d="M23.1161 9.91284H23.0648V9.99962H23.1161V9.91284Z" fill="#1A1A5A"/>
<path d="M37.054 15.0452H9.07357V15.1319H37.054V15.0452Z" fill="#1A1A5A"/>
<path d="M41.4034 20.1758H4.72446V20.2626H41.4034V20.1758Z" fill="#1A1A5A"/>
<path d="M43.5984 25.3062H2.53128V25.3929H43.5984V25.3062Z" fill="#1A1A5A"/>
<path d="M38.5003 30.437H1.81784V30.5238H38.5003V30.437Z" fill="#1A1A5A"/>
<path d="M35.8469 35.5693H1.81784V35.6561H35.8469V35.5693Z" fill="#1A1A5A"/>
<path d="M37.0542 14.8411H9.07373V15.3334H37.0542V14.8411Z" fill="#1A1A5A"/>
<path d="M41.4034 19.9736H4.72451V20.466H41.4034V19.9736Z" fill="#1A1A5A"/>
<path d="M43.5984 25.1042H2.53133V25.5966H43.5984V25.1042Z" fill="#1A1A5A"/>
<path d="M38.5003 30.2346H1.81789V30.727H38.5003V30.2346Z" fill="#1A1A5A"/>
<path d="M35.8469 35.3652H1.81789V35.8576H35.8469V35.3652Z" fill="#1A1A5A"/>
<path d="M38.5004 40.4961H7.10712V40.9884H38.5004V40.4961Z" fill="#1A1A5A"/>
<path d="M38.7465 20.218H38.2544V25.3486H38.7465V20.218Z" fill="#1A1A5A"/>
<path d="M33.6184 25.3503H33.1263V30.4809H33.6184V25.3503Z" fill="#1A1A5A"/>
<path d="M33.6184 35.6116H33.1263V40.8555H33.6184V35.6116Z" fill="#1A1A5A"/>
<path d="M33.6184 15.0874H33.1263V20.2197H33.6184V15.0874Z" fill="#1A1A5A"/>
<path d="M28.4903 20.218H27.9982V25.3486H28.4903V20.218Z" fill="#1A1A5A"/>
<path d="M28.4903 40.7422H27.9982V40.8608H28.4903V40.7422Z" fill="#1A1A5A"/>
<path d="M28.4903 30.481H27.9982V35.6133H28.4903V30.481Z" fill="#1A1A5A"/>
<path d="M28.4903 10.5769H27.9982V15.0876H28.4903V10.5769Z" fill="#1A1A5A"/>
<path d="M23.3622 25.3503H22.8701V30.4809H23.3622V25.3503Z" fill="#1A1A5A"/>
<path d="M23.3622 35.6116H22.8701V40.8484H23.3622V35.6116Z" fill="#1A1A5A"/>
<path d="M23.3622 15.0874H22.8701V20.2197H23.3622V15.0874Z" fill="#1A1A5A"/>
<path d="M18.2323 10.5537H17.7402V15.0875H18.2323V10.5537Z" fill="#1A1A5A"/>
<path d="M18.2323 30.481H17.7402V35.6133H18.2323V30.481Z" fill="#1A1A5A"/>
<path d="M18.2323 40.7422H17.7402V40.8237H18.2323V40.7422Z" fill="#1A1A5A"/>
<path d="M18.2323 20.218H17.7402V25.3486H18.2323V20.218Z" fill="#1A1A5A"/>
<path d="M13.1044 15.0874H12.6123V20.2197H13.1044V15.0874Z" fill="#1A1A5A"/>
<path d="M13.1044 35.6116H12.6123V40.79H13.1044V35.6116Z" fill="#1A1A5A"/>
<path d="M13.1044 25.3503H12.6123V30.4809H13.1044V25.3503Z" fill="#1A1A5A"/>
<path d="M7.97624 40.7422H7.48415V40.7475H7.97624V40.7422Z" fill="#1A1A5A"/>
<path d="M7.97624 30.481H7.48415V35.6133H7.97624V30.481Z" fill="#1A1A5A"/>
<path d="M7.97624 20.218H7.48415V25.3486H7.97624V20.218Z" fill="#1A1A5A"/>
<path d="M44.0515 32.7939H36.5833V33.2863H44.0515V32.7939Z" fill="#1A1A5A"/>
<path d="M43.1434 36.6282H35.6699V37.1205H43.1434V36.6282Z" fill="#1A1A5A"/>
<path d="M43.1829 36.6297L43.1025 37.1155L46.3352 37.6508L46.4155 37.1651L43.1829 36.6297Z" fill="#1A1A5A"/>
<path d="M44.165 32.8228L43.9384 33.2598L46.9864 34.8423L47.2131 34.4053L44.165 32.8228Z" fill="#1A1A5A"/>
<path d="M43.1045 40.9883H38.5003V40.496H42.7699C42.7345 39.6689 42.7522 38.725 42.8265 37.6819C42.9469 35.9746 43.2071 34.5915 43.6213 33.4527C44.1046 32.1245 44.7879 31.1469 45.7101 30.4633C46.5509 29.8399 47.5439 29.5105 48.583 29.5105C49.6221 29.5105 50.6169 29.8399 51.4559 30.4633C53.2172 31.7685 54.1872 34.1983 54.3395 37.689C54.3643 38.2486 54.3554 38.4682 54.3501 38.6293C54.3466 38.709 54.3448 38.7675 54.3483 38.8472L54.3554 39.0686L51.7197 39.421L51.7232 39.1376C51.7268 38.8348 51.6737 37.8714 51.64 37.5154C51.5338 36.4121 51.3568 35.5336 51.0948 34.8323C50.8948 34.2957 50.6434 33.8636 50.3478 33.5484C49.9956 33.1747 49.5849 32.971 49.1601 32.9586C48.7476 32.9462 48.3423 33.118 47.99 33.4527C47.9564 33.4846 47.9263 33.5147 47.8944 33.5484C47.5988 33.8636 47.3475 34.294 47.1474 34.8323C46.8872 35.5336 46.7084 36.4103 46.6022 37.5154C46.5704 37.8519 46.5438 38.2167 46.5244 38.5992C46.4943 39.2191 46.5066 39.4334 46.5279 39.7592C46.535 39.8797 46.5438 40.0178 46.5527 40.1931L46.5615 40.411L43.1045 40.9883ZM48.583 30.0011C47.6785 30.0011 46.7739 30.2862 46.0022 30.86C44.4179 32.0342 43.5647 34.2125 43.3169 37.7173C43.2443 38.7356 43.2248 39.6583 43.2602 40.4641L46.05 39.9983C46.0464 39.9239 46.0411 39.8549 46.0376 39.7929C46.0163 39.4635 46.0004 39.2244 46.034 38.578C46.0535 38.1884 46.08 37.8147 46.1137 37.4711C46.2234 36.3253 46.4111 35.4061 46.6872 34.6641C46.9138 34.0566 47.1917 33.5838 47.5369 33.2154C47.5758 33.1747 47.613 33.1357 47.6537 33.0985C48.1033 32.6717 48.629 32.4557 49.176 32.4698C49.7354 32.4858 50.2646 32.7426 50.7072 33.2154C51.0523 33.5838 51.3303 34.0566 51.5568 34.6641C51.833 35.4061 52.0206 36.3235 52.1304 37.4711C52.1587 37.7633 52.1976 38.4345 52.2118 38.8631L53.8615 38.6435C53.8615 38.6347 53.8615 38.624 53.8633 38.6152C53.8686 38.4629 53.8775 38.2539 53.8527 37.7137C53.7075 34.379 52.803 32.0749 51.1674 30.8618C50.3921 30.288 49.4876 30.0011 48.583 30.0011Z" fill="#1A1A5A"/>
<path d="M46.2644 38.8722L46.2579 39.3645L51.7978 39.4374L51.8043 38.9451L46.2644 38.8722Z" fill="#1A1A5A"/>
<path d="M48.9849 29.76H48.4928V32.7583H48.9849V29.76Z" fill="#1A1A5A"/>
<path d="M52.257 31.6737L50.6814 33.6785L51.0683 33.9828L52.6438 31.978L52.257 31.6737Z" fill="#1A1A5A"/>
<path d="M53.8531 35.7895L51.7703 36.6455L51.9573 37.1009L54.0401 36.2449L53.8531 35.7895Z" fill="#1A1A5A"/>
<path d="M51.663 36.6282H46.427V37.1205H51.663V36.6282Z" fill="#1A1A5A"/>
<path d="M50.7267 33.5854H47.367V34.0778H50.7267V33.5854Z" fill="#1A1A5A"/>
<path d="M50.1711 36.8659L49.6794 36.8843L49.763 39.1283L50.2547 39.11L50.1711 36.8659Z" fill="#1A1A5A"/>
<path d="M47.613 36.8815L47.1209 36.8691C47.144 35.9694 47.1369 34.4287 47.0147 34.1205L47.4732 33.9417C47.6661 34.4322 47.6237 36.4759 47.613 36.8815Z" fill="#1A1A5A"/>
<path d="M30.5825 17.0869C30.5825 17.0869 32.2128 19.0262 32.2571 20.8202C32.3013 22.6142 31.8305 23.172 31.4198 23.1384C31.0091 23.1047 31.0003 19.0811 30.8321 18.6914C30.664 18.3 30.5825 17.0869 30.5825 17.0869Z" fill="white"/>
<path d="M25.782 12.084H25.7306V12.5763H25.782V12.084Z" fill="#1A1A5A"/>
<path d="M32.3598 34.7067C32.3155 34.6837 32.2713 34.6589 32.2288 34.6341C30.4357 33.6246 28.7646 31.9705 28.1132 29.9392C28.1044 29.9109 28.0938 29.879 28.0867 29.8507C28.0849 29.8453 28.0831 29.8383 28.0814 29.8329L31.7172 27.9982L31.8075 27.9521C31.8075 27.9521 32.7935 29.3654 34.2149 32.1104C34.3866 32.4416 34.5034 32.7498 34.5725 33.0296C34.6096 33.173 34.6327 33.3076 34.6451 33.4351C34.7814 34.8378 33.5865 35.3744 32.3598 34.7067Z" fill="#575B5A"/>
<g opacity="0.35">
<g opacity="0.35">
<g opacity="0.35">
<path opacity="0.35" d="M34.5725 33.0296C34.268 32.8047 33.7635 32.3495 33.1351 31.4747C32.4058 30.4599 31.9385 28.8784 31.7173 27.9982L31.8075 27.9521C31.8075 27.9521 32.7935 29.3654 34.2149 32.1104C34.3848 32.4434 34.5017 32.7498 34.5725 33.0296Z" fill="white"/>
</g>
</g>
</g>
<g opacity="0.35">
<g opacity="0.35">
<g opacity="0.35">
<path opacity="0.35" d="M32.3597 34.7067C32.3155 34.6836 32.2712 34.6588 32.2287 34.634C30.4356 33.6246 28.7646 31.9705 28.1132 29.9391C28.1043 29.9108 28.0937 29.8789 28.0866 29.8506C28.5964 30.5183 31.0764 33.6458 33.0147 33.8424C34.0608 33.9487 34.4856 33.7096 34.645 33.4369C34.7813 34.8377 33.5864 35.3743 32.3597 34.7067Z" fill="black"/>
</g>
</g>
<g opacity="0.35">
<g opacity="0.35">
<path opacity="0.35" d="M33.3846 35.0361C33.0554 35.0361 32.696 34.9386 32.3402 34.7456C32.2977 34.7226 32.2535 34.6978 32.2075 34.6712C31.2693 34.1435 30.4055 33.4616 29.7116 32.6983C28.9363 31.8465 28.384 30.9238 28.0742 29.9533C28.0636 29.9179 28.0547 29.8895 28.0459 29.863L27.9822 29.6416L28.122 29.824C28.6017 30.4527 31.094 33.6033 33.02 33.7999C34.0856 33.9079 34.4715 33.6511 34.6078 33.4156L34.675 33.3005L34.6874 33.4333C34.7476 34.0549 34.5547 34.549 34.1422 34.8218C33.9263 34.9652 33.6661 35.0361 33.3846 35.0361ZM28.2034 30.072C28.8212 31.85 30.2886 33.4917 32.2499 34.5968C32.296 34.6234 32.3385 34.6464 32.3809 34.6695C33.0129 35.013 33.6537 35.0431 34.0944 34.7492C34.452 34.5118 34.6325 34.0921 34.6095 33.559C34.3546 33.8583 33.8165 33.9664 33.0093 33.8849C32.1791 33.7999 31.1613 33.1854 29.9842 32.0537C29.2 31.301 28.5486 30.5112 28.2034 30.072Z" fill="#1A1A5A"/>
</g>
</g>
</g>
<path d="M33.3847 35.2362C33.0218 35.2362 32.627 35.1317 32.2429 34.9227C32.1934 34.8962 32.1491 34.8714 32.1066 34.8484C31.149 34.31 30.2692 33.614 29.5594 32.8365C28.7646 31.9634 28.1982 31.0142 27.8778 30.0153V30.0135C27.8654 29.9764 27.8548 29.9392 27.8441 29.9037C27.8052 29.7727 27.8795 29.6363 28.0105 29.5991C28.1415 29.5602 28.2778 29.6346 28.315 29.7656C28.3256 29.7993 28.3362 29.8329 28.3469 29.8666C28.9204 31.6517 30.379 33.3111 32.3491 34.4198L32.3509 34.4216C32.3881 34.4428 32.4306 34.4658 32.4766 34.4906C33.1103 34.8342 33.7511 34.8289 34.1104 34.4765C34.5459 34.0496 34.5034 33.2067 33.9954 32.2237C32.5987 29.5248 31.6163 28.1062 31.6057 28.092C31.5278 27.9804 31.5543 27.8281 31.6659 27.7502C31.7774 27.6723 31.9296 27.6989 32.0075 27.8104C32.0181 27.8246 33.02 29.2697 34.4308 31.9971C34.7459 32.6081 34.9052 33.1695 34.8999 33.6689C34.8964 34.1435 34.7424 34.5438 34.4538 34.8271C34.1777 35.0981 33.8006 35.2362 33.3847 35.2362Z" fill="#1A1A5A"/>
<path d="M25.4456 43.427C25.4456 43.427 26.9998 45.8037 28.4513 45.1537C29.9028 44.5038 29.6815 43.8662 30.2126 43.8538C30.7454 43.8414 31.6021 43.5581 31.1401 42.7381C30.6763 41.9181 29.2284 41.4187 29.2284 41.4187C29.2284 41.4187 25.8687 41.9943 25.4456 43.427Z" fill="#FEC212"/>
<path d="M27.9256 45.5133C26.5361 45.5133 25.3005 43.652 25.2403 43.5617L25.1784 43.466L25.2102 43.3562C25.4085 42.6833 26.1502 42.1095 27.4123 41.6543C28.315 41.3285 29.1505 41.1832 29.186 41.1762L29.2479 41.1655L29.3081 41.1868C29.37 41.208 30.8516 41.7269 31.3544 42.6177C31.5986 43.0499 31.5261 43.3598 31.4216 43.5422C31.1968 43.9371 30.6339 44.0894 30.2197 44.1001C30.1224 44.1018 30.0958 44.1213 29.9524 44.3108C29.7506 44.5765 29.4444 44.9785 28.5522 45.3787C28.3416 45.4726 28.1327 45.5133 27.9256 45.5133ZM25.72 43.3917C26.0227 43.8132 27.2636 45.4177 28.3504 44.9289C29.1275 44.5818 29.3789 44.2524 29.5612 44.0115C29.7099 43.8167 29.8621 43.6148 30.2073 43.6077C30.5153 43.6006 30.8835 43.4926 30.9933 43.2996C31.0534 43.1933 31.0304 43.0446 30.926 42.8586C30.6003 42.2813 29.6267 41.8279 29.2072 41.672C29.0001 41.711 28.2991 41.8544 27.5734 42.1183C26.5608 42.4867 25.9254 42.9241 25.72 43.3917Z" fill="#1A1A5A"/>
<g opacity="0.3">
<g opacity="0.3">
<g opacity="0.3">
<path opacity="0.3" d="M30.795 42.1094C30.3171 42.7611 28.9611 44.1071 26.0245 43.8344C25.8563 43.6236 25.7607 43.4749 25.7607 43.4749C26.1838 42.0421 29.5417 41.4666 29.5417 41.4666C29.5417 41.4666 30.2197 41.7021 30.795 42.1094Z" fill="#1A1A5A"/>
</g>
</g>
</g>
<path d="M18.0854 43.427C18.0854 43.427 16.5312 45.8037 15.0797 45.1537C13.6282 44.5038 13.8495 43.8662 13.3184 43.8538C12.7856 43.8414 11.9289 43.5581 12.3909 42.7381C12.8547 41.9181 14.3026 41.4187 14.3026 41.4187C14.3026 41.4187 17.6623 41.9943 18.0854 43.427Z" fill="#FEC212"/>
<path d="M15.6055 45.5133C15.3984 45.5133 15.1895 45.4726 14.9789 45.3787C14.0867 44.9802 13.7805 44.5765 13.5787 44.3108C13.4353 44.1213 13.4106 44.1018 13.3114 44.1001C12.8972 44.0894 12.3343 43.9389 12.1095 43.5422C12.0051 43.358 11.9325 43.0499 12.1768 42.6177C12.6795 41.7269 14.1611 41.2098 14.223 41.1868L14.2832 41.1655L14.3452 41.1762C14.3806 41.1815 15.2161 41.3267 16.1189 41.6543C17.381 42.1112 18.1209 42.6833 18.3209 43.3562L18.3528 43.466L18.2908 43.5617C18.2306 43.6538 16.9951 45.5133 15.6055 45.5133ZM14.3239 41.6738C14.0584 41.7748 12.9663 42.2193 12.6034 42.8604C12.4989 43.0463 12.4759 43.1951 12.5361 43.3013C12.6459 43.4944 13.014 43.6024 13.322 43.6095C13.6672 43.6184 13.8195 43.8185 13.9681 44.0133C14.1505 44.2541 14.4018 44.5818 15.1789 44.9307C16.2675 45.4177 17.5084 43.8149 17.8093 43.3934C17.6058 42.9259 16.9685 42.4885 15.956 42.1219C15.2338 41.858 14.5346 41.7145 14.3239 41.6738Z" fill="#1A1A5A"/>
<g opacity="0.3">
<g opacity="0.3">
<g opacity="0.3">
<path opacity="0.3" d="M12.736 42.1094C13.214 42.7611 14.5699 44.1071 17.5065 43.8344C17.6747 43.6236 17.7703 43.4749 17.7703 43.4749C17.3472 42.0421 13.9893 41.4666 13.9893 41.4666C13.9893 41.4666 13.3113 41.7021 12.736 42.1094Z" fill="#1A1A5A"/>
</g>
</g>
</g>
<path d="M32.9156 34.7546V34.8024C32.9121 35.9712 32.7422 37.087 32.3669 38.1017C31.6411 39.8302 29.2904 43.103 26.467 43.6928C25.1306 43.9726 23.5038 44.1178 21.5355 44.1178C16.641 44.1178 14.2337 42.0263 12.437 40.5121C12.4087 40.489 12.3821 40.466 12.3538 40.443C12.3343 40.427 12.3166 40.4093 12.2971 40.3934C11.2899 39.4619 10.8226 37.7511 10.6633 35.9004C10.6474 35.7321 10.635 35.5621 10.6261 35.3921C10.6226 35.3213 10.6191 35.2203 10.6173 35.1194C10.6155 35.0167 10.6137 34.9157 10.612 34.8466V34.7988C10.6704 33.8726 10.7713 32.9871 10.9448 32.075C11.1979 30.7379 11.605 29.3442 12.2511 27.6759C12.7361 26.4273 13.1256 24.961 13.0282 23.654C12.991 23.1616 12.9733 22.6569 12.9733 22.1415C12.9733 21.6404 12.9893 21.148 13.0247 20.6681C13.0742 20.0004 13.161 19.3558 13.2937 18.7412C13.4159 18.1728 13.5787 17.6308 13.7876 17.1208V17.119C13.8071 17.0818 13.8265 17.0429 13.846 17.0057C14.7541 15.2949 16.2782 13.9596 18.6289 13.2388C18.6289 13.2388 18.6307 13.2388 18.6324 13.2388C19.5246 12.966 20.5371 12.7801 21.6806 12.6951L21.4133 12.672C21.2239 12.1585 20.3123 11.2623 21.1212 10.5114C21.778 9.90044 22.6188 10.7487 22.8206 11.4182C22.8436 11.4926 22.9409 11.5103 22.9887 11.4483C23.01 11.42 23.0348 11.3898 23.0613 11.3562C23.3976 10.9453 24.0986 10.2157 24.681 10.4512C25.4952 10.7824 25.0704 12.0256 24.6527 12.7252C24.8421 12.7464 25.0279 12.773 25.2103 12.8031C25.2244 12.8049 25.2386 12.8066 25.2545 12.8102C25.2881 12.8155 25.32 12.8226 25.3519 12.8279C25.3572 12.8297 25.3625 12.8297 25.3678 12.8314C25.4191 12.8421 25.4705 12.8509 25.52 12.8598C25.5324 12.8633 25.5448 12.8651 25.5572 12.8686C25.6068 12.8793 25.6563 12.8899 25.7041 12.9005C25.7165 12.904 25.7289 12.9058 25.7413 12.9094C25.7909 12.92 25.8404 12.9324 25.8882 12.9448C25.9006 12.9466 25.9112 12.9501 25.9236 12.9536C25.9643 12.9643 26.005 12.9749 26.0458 12.9855C26.067 12.9908 26.09 12.9961 26.1112 13.0032C26.1537 13.0156 26.198 13.0262 26.2387 13.0386C26.2493 13.0404 26.2582 13.044 26.267 13.0475C26.3077 13.0599 26.3484 13.0723 26.3874 13.0847C26.4193 13.0935 26.4511 13.1042 26.483 13.1148C26.4989 13.1201 26.5166 13.1254 26.5325 13.1307C26.5715 13.1431 26.6087 13.1555 26.6476 13.1697C26.6688 13.1768 26.6883 13.1839 26.7096 13.1909C26.7396 13.2016 26.768 13.2122 26.7981 13.2246C26.8264 13.2335 26.8529 13.2441 26.8813 13.2547C26.9025 13.2636 26.922 13.2706 26.9432 13.2795C26.9733 13.2919 27.0016 13.3025 27.0299 13.3149C27.0636 13.3273 27.0954 13.3415 27.1291 13.3557C27.145 13.3627 27.1609 13.368 27.1751 13.3751C27.2052 13.3875 27.2335 13.4017 27.2618 13.4141C27.2902 13.4265 27.3185 13.4389 27.3468 13.4531C27.3627 13.4601 27.3787 13.4672 27.3928 13.4761C27.4229 13.4902 27.453 13.5044 27.4813 13.5186C27.5079 13.531 27.5327 13.5434 27.5574 13.5575C27.5822 13.5699 27.6052 13.5823 27.63 13.5947C27.6707 13.616 27.7097 13.6372 27.7504 13.6603C27.784 13.6797 27.8194 13.6992 27.8548 13.7205C27.869 13.7276 27.8814 13.7364 27.8938 13.7435C27.9168 13.7559 27.938 13.7683 27.9593 13.7825C27.9929 13.8019 28.0248 13.8232 28.0566 13.8444C28.0566 13.8444 28.0584 13.8444 28.0602 13.8462C28.1026 13.8728 28.1451 13.9011 28.1858 13.9295C28.1876 13.9312 28.1912 13.933 28.1947 13.9348C28.2301 13.9578 28.2637 13.9808 28.2974 14.0056C28.3115 14.0145 28.3257 14.0251 28.3381 14.0339C28.3699 14.0587 28.4018 14.0818 28.4337 14.1048C28.4354 14.1048 28.4372 14.1066 28.439 14.1083C28.5151 14.165 28.5877 14.2234 28.6602 14.2837C28.6744 14.296 28.6903 14.3084 28.7063 14.3208C28.7293 14.3403 28.7523 14.3598 28.7735 14.3793C28.7859 14.3899 28.7983 14.4005 28.8107 14.4112C28.839 14.436 28.8656 14.4608 28.8939 14.4855C28.8974 14.4891 28.9027 14.4944 28.9081 14.4979C28.9399 14.5263 28.97 14.5564 29.0001 14.5847C29.009 14.5936 29.0178 14.6024 29.0267 14.6113C29.0514 14.6361 29.0762 14.6591 29.101 14.6857C29.1453 14.7299 29.1877 14.776 29.2302 14.822C29.2904 14.8876 29.3488 14.9531 29.4037 15.0204C29.4072 15.0239 29.4125 15.0292 29.4143 15.0328C29.4426 15.0664 29.471 15.1018 29.4993 15.1355C29.5294 15.1727 29.5612 15.2117 29.5896 15.2506C29.6197 15.2878 29.648 15.3285 29.6763 15.3657C29.6781 15.3693 29.6816 15.3728 29.6851 15.3781C29.7099 15.4118 29.7347 15.4472 29.7577 15.4808C29.8108 15.557 29.8622 15.6349 29.9117 15.7146C29.933 15.7465 29.9524 15.7784 29.9719 15.8102C30.0374 15.9165 30.0994 16.0245 30.1578 16.1361C30.179 16.1733 30.1985 16.2123 30.218 16.2512C30.3383 16.485 30.4463 16.7294 30.5437 16.9809C30.5578 17.0145 30.5702 17.0482 30.5844 17.0836C30.6375 17.2288 30.6888 17.374 30.7348 17.5228C30.7508 17.5724 30.7667 17.622 30.7809 17.6733C30.7932 17.7194 30.8074 17.7637 30.8198 17.8079C30.8287 17.8363 30.8357 17.8664 30.8428 17.8947C30.8517 17.9213 30.8587 17.9496 30.8658 17.9779C30.8835 18.0452 30.9012 18.1143 30.9189 18.1834C30.9402 18.2666 30.9596 18.3499 30.9773 18.4349C30.9791 18.4473 30.9827 18.4579 30.9844 18.4703C30.9933 18.5128 31.0021 18.5535 31.011 18.596C31.0216 18.6491 31.034 18.704 31.0446 18.7572C31.0853 18.975 31.1225 19.1964 31.1561 19.4231C31.1685 19.5116 31.1791 19.6002 31.1898 19.6905C31.2057 19.8269 31.2216 19.9632 31.2358 20.0996C31.2977 20.7442 31.3261 21.4137 31.3261 22.099C31.3261 22.4072 31.3207 22.7136 31.3084 23.0164C31.2517 24.4704 31.1048 26.1263 31.5473 27.52C31.9863 28.9032 32.6342 30.7008 32.797 32.4558C32.797 32.4593 32.7988 32.4647 32.7988 32.4682C32.8661 33.1979 32.9068 33.885 32.9174 34.4677C32.9174 34.4801 32.9174 34.4924 32.9174 34.5048C32.9156 34.5899 32.9156 34.6731 32.9156 34.7546Z" fill="#575B5A"/>
<path d="M31.8022 36.4511C31.303 38.6754 29.2939 42.9347 23.3144 42.9347C15.9099 42.9347 13.5822 39.3059 13.4123 35.9782C13.2795 33.3713 15.494 31.3754 15.7683 29.422C16.0427 27.4686 16.2055 27.6315 15.5913 23.4555C15.055 19.8002 16.3171 15.2399 20.684 15.858C23.5286 16.26 23.0082 22.6692 23.0082 22.6692C23.2259 22.5328 23.8631 22.1237 24.1269 22.1237C24.3623 22.1237 25.0456 22.5559 25.2456 22.6692C25.2456 22.6692 23.8578 16.3485 27.0742 16.3485C29.9418 16.3485 30.1772 19.7772 29.8232 23.4555C29.4992 26.8186 30.5454 29.0696 30.8463 29.9108C31.9119 32.8949 32.1049 35.098 31.8022 36.4511Z" fill="white"/>
<g opacity="0.3">
<g opacity="0.3">
<g opacity="0.3">
<path opacity="0.3" d="M32.9156 34.7544V34.8022C32.9103 35.9711 32.7421 37.0868 32.3668 38.1016C31.6411 39.8301 29.1523 42.8904 26.3289 43.4819C24.9925 43.7617 23.3657 43.9051 21.3973 43.9051C16.5029 43.9051 14.2336 42.0261 12.4387 40.5119C12.4104 40.4889 12.3838 40.4659 12.3555 40.4428C12.336 40.4269 12.3183 40.411 12.3006 40.3933C11.2917 39.4617 10.8244 37.7509 10.6668 35.9003C10.6527 35.732 10.6403 35.562 10.6314 35.392C10.6243 35.2521 10.619 34.9847 10.6172 34.8447C10.6172 34.8377 10.6172 34.8306 10.6172 34.8253V34.7969C10.6757 33.8707 10.7766 32.9852 10.95 32.0731C11.0633 31.912 11.1306 31.8181 11.1306 31.8181C11.1306 31.8181 10.8261 40.1046 17.8907 41.532C27.7734 43.5279 32.2482 38.9446 32.9174 34.5083C32.9156 34.5915 32.9156 34.673 32.9156 34.7544Z" fill="#1A1A5A"/>
</g>
</g>
</g>
<g opacity="0.3">
<g opacity="0.3">
<g opacity="0.3">
<path opacity="0.3" d="M30.9844 18.4721C27.7309 18.6386 17.211 19.0282 13.2954 18.7395C13.4176 18.171 13.5804 17.6291 13.7893 17.1191V17.1173C13.8088 17.0801 13.8282 17.0411 13.8477 17.004C14.7558 15.2932 16.2799 13.9579 18.6306 13.2371C18.6306 13.2371 18.6324 13.2371 18.6342 13.2371C19.5263 12.9643 20.5388 12.7784 21.6823 12.6934L21.415 12.6703C21.2256 12.1568 20.314 11.2606 21.123 10.5097C21.7797 9.89873 22.6205 10.747 22.8223 11.4165C22.8453 11.4909 22.9427 11.5086 22.9904 11.4466C23.0117 11.4182 23.0365 11.3881 23.063 11.3545C23.3993 10.9436 24.1003 10.214 24.6827 10.4495C25.497 10.7807 25.0721 12.0239 24.6544 12.7235C24.8438 12.7447 25.0296 12.7713 25.212 12.8014C25.2261 12.8032 25.2403 12.8049 25.2562 12.8085C25.2898 12.8138 25.3217 12.8209 25.3536 12.8262C25.3589 12.828 25.3642 12.828 25.3695 12.8297C25.4208 12.8404 25.4722 12.8492 25.5217 12.8581C25.5341 12.8616 25.5465 12.8634 25.5589 12.8669C25.6085 12.8775 25.658 12.8882 25.7058 12.8988C25.7182 12.9023 25.7306 12.9041 25.743 12.9077C25.7926 12.9183 25.8421 12.9307 25.8899 12.9431C25.9023 12.9448 25.9129 12.9484 25.9253 12.9519C25.966 12.9626 26.0068 12.9732 26.0475 12.9838C26.0687 12.9891 26.0917 12.9944 26.113 13.0015C26.1554 13.0139 26.1997 13.0245 26.2404 13.0369C26.251 13.0387 26.2599 13.0422 26.2687 13.0458C26.3094 13.0582 26.3502 13.0706 26.3891 13.083C26.421 13.0918 26.4528 13.1025 26.4847 13.1131C26.5006 13.1184 26.5183 13.1237 26.5342 13.129C26.5732 13.1414 26.6104 13.1538 26.6493 13.168C26.6705 13.1751 26.69 13.1822 26.7113 13.1892C26.7414 13.1999 26.7697 13.2105 26.7998 13.2229C26.8281 13.2317 26.8546 13.2424 26.883 13.253C26.9042 13.2619 26.9237 13.2689 26.9449 13.2778C26.975 13.2902 27.0033 13.3008 27.0317 13.3132C27.0653 13.3256 27.0972 13.3398 27.1308 13.3539C27.1467 13.361 27.1626 13.3663 27.1768 13.3734C27.2069 13.3858 27.2352 13.4 27.2635 13.4124C27.2919 13.4248 27.3202 13.4372 27.3485 13.4513C27.3644 13.4584 27.3804 13.4655 27.3945 13.4744C27.4246 13.4885 27.4547 13.5027 27.483 13.5169C27.5096 13.5293 27.5344 13.5417 27.5592 13.5558C27.5839 13.5682 27.6069 13.5806 27.6317 13.593C27.6724 13.6143 27.7114 13.6355 27.7521 13.6586C27.7857 13.678 27.8211 13.6975 27.8565 13.7188C27.8707 13.7258 27.8831 13.7347 27.8955 13.7418C27.9185 13.7542 27.9397 13.7666 27.961 13.7808C27.9946 13.8002 28.0265 13.8215 28.0583 13.8427C28.0583 13.8427 28.0601 13.8427 28.0619 13.8445C28.1044 13.8711 28.1468 13.8994 28.1876 13.9277C28.1893 13.9295 28.1929 13.9313 28.1964 13.9331C28.2318 13.9561 28.2654 13.9791 28.2991 14.0039C28.3132 14.0128 28.3274 14.0234 28.3398 14.0322C28.3716 14.057 28.4035 14.08 28.4354 14.1031C28.4371 14.1031 28.4389 14.1048 28.4407 14.1066C28.5168 14.1633 28.5894 14.2217 28.6619 14.2819C28.6761 14.2943 28.692 14.3067 28.708 14.3191C28.731 14.3386 28.754 14.3581 28.7752 14.3776C28.7876 14.3882 28.8 14.3988 28.8124 14.4095C28.8407 14.4342 28.8673 14.459 28.8956 14.4838C28.8991 14.4874 28.9045 14.4927 28.9098 14.4962C28.9416 14.5246 28.9717 14.5547 29.0018 14.583C29.0107 14.5919 29.0195 14.6007 29.0284 14.6096C29.0531 14.6344 29.0779 14.6574 29.1027 14.684C29.147 14.7282 29.1894 14.7743 29.2319 14.8203C29.2921 14.8859 29.3505 14.9514 29.4054 15.0187C29.4089 15.0222 29.4143 15.0275 29.416 15.0311C29.4443 15.0647 29.4727 15.1001 29.501 15.1338C29.5311 15.171 29.5629 15.2099 29.5913 15.2489C29.6214 15.2861 29.6497 15.3268 29.678 15.364C29.6798 15.3676 29.6833 15.3711 29.6869 15.3764C29.7116 15.4101 29.7364 15.4455 29.7594 15.4791C29.8125 15.5553 29.8639 15.6332 29.9134 15.7129C29.9347 15.7448 29.9541 15.7767 29.9736 15.8085C30.0391 15.9148 30.1011 16.0228 30.1595 16.1344C30.1807 16.1716 30.2002 16.2106 30.2197 16.2495C30.34 16.4833 30.448 16.7277 30.5454 16.9792C30.5595 17.0128 30.5719 17.0465 30.5861 17.0819C30.6392 17.2271 30.6905 17.3723 30.7365 17.5211C30.7525 17.5707 30.7684 17.6203 30.7826 17.6716C30.795 17.7177 30.8091 17.7619 30.8215 17.8062C30.8304 17.8346 30.8374 17.8647 30.8445 17.893C30.8534 17.9196 30.8605 17.9479 30.8675 17.9762C30.8852 18.0435 30.9029 18.1126 30.9206 18.1817C30.9419 18.2649 30.9613 18.3481 30.9791 18.4331C30.9791 18.4491 30.9826 18.4597 30.9844 18.4721Z" fill="#1A1A5A"/>
</g>
</g>
</g>
<g opacity="0.35">
<g opacity="0.35">
<g opacity="0.35">
<path opacity="0.35" d="M31.234 20.1013L30.9809 22.1344C30.9809 22.1344 30.7047 16.9294 27.9787 14.9194C27.4211 14.5067 26.7857 14.1862 26.1006 13.9471C26.1555 14.0161 26.1803 14.0852 26.1714 14.1543C26.1343 14.4589 25.4598 14.6271 24.665 14.5315C23.8685 14.4359 23.2543 14.1118 23.2914 13.8072C23.3109 13.6425 23.518 13.5185 23.8313 13.453C21.2044 13.1785 18.3563 13.7806 16.51 14.8715C14.7275 15.9271 13.7185 18.6792 13.0264 20.6645C13.1202 19.3787 13.3539 18.178 13.7893 17.1189V17.1172C13.8088 17.0782 13.8283 17.041 13.8478 17.0038C14.8284 15.123 16.0958 13.8267 18.6307 13.2369H18.6324C19.4927 13.0368 20.4999 12.9199 21.6912 12.888C21.6912 12.888 22.8825 12.9323 23.0666 12.9323H23.0684C23.472 12.9358 23.8543 12.7375 24.065 12.3921C24.3907 11.8573 24.7164 11.1914 24.4332 11.0409C23.9287 10.7735 23.0808 11.7103 23.0808 11.7103L23.0613 11.3561C23.3976 10.9435 24.0986 10.2156 24.681 10.4511C25.4952 10.7805 25.0704 12.0256 24.6509 12.7251C24.8421 12.7463 25.0279 12.7729 25.2085 12.8048C24.789 12.7481 24.9146 12.9978 24.55 13.0545L25.3129 13.0155C25.3129 13.0155 25.3271 12.9429 25.3501 12.8278C25.3554 12.8296 25.3625 12.8296 25.3678 12.8314C25.4191 12.8402 25.4687 12.8508 25.52 12.8597C25.5324 12.8615 25.5448 12.865 25.5572 12.8668C25.6068 12.8774 25.6563 12.888 25.7041 12.8987C25.7165 12.9004 25.7289 12.904 25.7413 12.9075C25.7909 12.9181 25.8404 12.9305 25.8882 12.9429C25.9006 12.9447 25.9112 12.9482 25.9236 12.9518C25.9643 12.9606 26.005 12.973 26.0458 12.9837C26.067 12.989 26.09 12.9943 26.1112 13.0014C26.1537 13.0138 26.1962 13.0244 26.2387 13.0368C26.2475 13.0386 26.2582 13.0421 26.267 13.0456C26.3077 13.058 26.3484 13.0704 26.3874 13.0828C26.4192 13.0917 26.4511 13.1023 26.4812 13.1129C26.4971 13.1183 26.5148 13.1236 26.5308 13.1289C26.5697 13.1413 26.6087 13.1537 26.6458 13.1678C26.6671 13.1749 26.6865 13.182 26.7078 13.1891C26.7379 13.198 26.7662 13.2103 26.7963 13.221C26.8246 13.2298 26.8512 13.2405 26.8795 13.2529C26.899 13.2599 26.9202 13.2688 26.9397 13.2776C26.9698 13.29 26.9981 13.3007 27.0282 13.3131C27.0618 13.3255 27.0937 13.3396 27.1255 13.3538C27.1415 13.3609 27.1574 13.3662 27.1733 13.3733C27.2034 13.3857 27.2317 13.3998 27.2601 13.4122C27.2884 13.4246 27.3167 13.437 27.345 13.4512C27.361 13.4583 27.3769 13.4654 27.3928 13.4742C27.4229 13.4884 27.453 13.5026 27.4813 13.5167C27.5079 13.5291 27.5327 13.5415 27.5574 13.5557C27.5822 13.5681 27.6052 13.5805 27.63 13.5947C27.6707 13.6159 27.7097 13.6372 27.7504 13.6602C27.7858 13.6797 27.8194 13.6991 27.8548 13.7204C27.869 13.7275 27.8814 13.7346 27.8938 13.7434C27.915 13.7558 27.938 13.7682 27.9593 13.7824C27.9929 13.8019 28.0248 13.8231 28.0566 13.8426C28.0566 13.8426 28.0584 13.8426 28.0584 13.8444C28.1009 13.8709 28.1434 13.8993 28.1841 13.9276C28.1858 13.9294 28.1894 13.9311 28.1929 13.9329C28.2266 13.9559 28.262 13.979 28.2956 14.0038C28.3098 14.0126 28.3239 14.0232 28.3363 14.0321C28.3682 14.0569 28.4 14.0799 28.4319 14.1029C28.4337 14.1047 28.4354 14.1047 28.4372 14.1065C28.5115 14.1631 28.5859 14.2216 28.6585 14.2818C28.6726 14.2942 28.6886 14.3066 28.7045 14.3208C28.7275 14.3402 28.7505 14.3597 28.7718 14.3792C28.7841 14.3898 28.7965 14.4005 28.8072 14.4111C28.8355 14.4359 28.862 14.4589 28.8886 14.4837C28.8939 14.489 28.8974 14.4925 28.9027 14.4979C28.9346 14.5262 28.9647 14.5563 28.9948 14.5846C29.0036 14.5935 29.0125 14.6023 29.0213 14.6112C29.0461 14.636 29.0709 14.659 29.0957 14.6856C29.1399 14.7299 29.1824 14.7759 29.2249 14.822C29.2851 14.8875 29.3435 14.953 29.3984 15.0185C29.4019 15.0238 29.4055 15.0274 29.409 15.0309C29.4373 15.0646 29.4656 15.1 29.494 15.1336C29.5241 15.1708 29.5542 15.2098 29.5842 15.2488C29.6143 15.2877 29.6427 15.3267 29.671 15.3639C29.6728 15.3674 29.6763 15.371 29.6798 15.3763C29.7046 15.4099 29.7294 15.4453 29.7524 15.479C29.8055 15.5551 29.8568 15.6331 29.9064 15.7128C29.9277 15.7446 29.9471 15.7765 29.9666 15.8084C30.0321 15.9147 30.094 16.0245 30.1525 16.1343C30.1719 16.1714 30.1932 16.2104 30.2126 16.2476C30.333 16.4814 30.441 16.7258 30.5401 16.9772C30.5543 17.0109 30.5667 17.0445 30.5791 17.08C30.6322 17.2252 30.6835 17.3704 30.7313 17.5192C30.7472 17.5688 30.7632 17.6183 30.7773 17.6697C30.7897 17.714 30.8039 17.7583 30.8163 17.8043C30.8251 17.8326 30.834 17.8627 30.841 17.8911C30.8499 17.9176 30.857 17.946 30.8641 17.9743C30.8818 18.0416 30.8995 18.1107 30.9172 18.1798C30.9384 18.263 30.9579 18.3462 30.9756 18.4312C30.988 18.4844 30.9986 18.5375 31.0092 18.5924C31.0198 18.6455 31.0304 18.7004 31.0411 18.7536C31.0836 18.9714 31.1207 19.1945 31.1526 19.4194C31.165 19.508 31.1774 19.5965 31.1862 19.6869C31.2057 19.8268 31.2199 19.9649 31.234 20.1013Z" fill="white"/>
</g>
</g>
<g opacity="0.35">
<g opacity="0.35">
<path opacity="0.35" d="M31.0252 22.1414L30.9402 22.1379C30.9402 22.1255 30.8659 20.822 30.4623 19.2919C30.0905 17.8822 29.3524 15.9872 27.9558 14.9547C27.4477 14.5793 26.8565 14.2694 26.1998 14.0285C26.2175 14.0728 26.2228 14.117 26.2175 14.1613C26.1768 14.4943 25.4953 14.6767 24.6633 14.5757C23.8314 14.4748 23.2118 14.1365 23.2508 13.8036C23.2667 13.6672 23.3888 13.5539 23.5977 13.4759C21.1231 13.267 18.374 13.8213 16.5331 14.9105C14.8391 15.9111 13.8567 18.4135 13.0672 20.6786L12.9592 20.9867L12.9822 20.6609C13.0831 19.2777 13.3327 18.1142 13.7451 17.1083V17.1065L13.7504 17.0976L13.7522 17.0941C13.7735 17.0516 13.7912 17.0179 13.8106 16.9843C14.3523 15.9465 14.9311 15.1903 15.6303 14.6041C16.4216 13.9417 17.3969 13.483 18.6112 13.1979L18.6236 13.1944C19.5052 12.9907 20.5088 12.8756 21.6913 12.8455H21.693H21.6948C21.7072 12.8455 22.8861 12.8897 23.0684 12.8897H23.0702C23.4649 12.8933 23.8331 12.6949 24.0314 12.3708C24.3854 11.7882 24.5447 11.3755 24.4916 11.179C24.4792 11.1329 24.4544 11.101 24.4155 11.0798C23.9464 10.8319 23.1233 11.7297 23.1162 11.7386L23.0472 11.8148L23.0206 11.3401L23.0313 11.3277C23.3959 10.8814 24.0986 10.1677 24.7005 10.4104C24.9164 10.4989 25.0634 10.653 25.1359 10.8708C25.3094 11.3879 25.0297 12.1601 24.7253 12.6896C24.9005 12.7109 25.0634 12.7339 25.2191 12.7605L25.2067 12.8455C24.9943 12.8171 24.9395 12.8703 24.8704 12.9376C24.851 12.957 24.8297 12.9765 24.8032 12.9978L25.2811 12.973C25.2882 12.9411 25.297 12.888 25.3112 12.8189L25.32 12.7764L25.3625 12.7853C25.3643 12.7853 25.3661 12.7853 25.3696 12.787C25.3731 12.787 25.3767 12.7888 25.3802 12.7888C25.4298 12.7977 25.4811 12.8083 25.5307 12.8171L25.5679 12.8242C25.6157 12.8348 25.667 12.8455 25.7165 12.8561L25.7219 12.8579C25.7325 12.8596 25.7449 12.8632 25.7555 12.865C25.7997 12.8738 25.8475 12.8862 25.9024 12.9004C25.9148 12.9021 25.9254 12.9057 25.9378 12.9092C25.9768 12.9181 26.0192 12.9305 26.06 12.9411C26.0812 12.9464 26.1042 12.9517 26.1272 12.9588C26.1679 12.9694 26.2122 12.9818 26.2547 12.9942C26.26 12.996 26.2653 12.9978 26.2724 12.9995C26.2759 13.0013 26.2795 13.0013 26.283 13.0031C26.3219 13.0137 26.3626 13.0261 26.4051 13.0403C26.437 13.0491 26.4689 13.0598 26.5007 13.0704L26.5096 13.0739C26.5237 13.0775 26.5379 13.0828 26.5503 13.0881C26.591 13.1005 26.6299 13.1147 26.6653 13.1271C26.6848 13.1341 26.7061 13.1412 26.7273 13.1483C26.7538 13.1572 26.7822 13.1678 26.8158 13.1802C26.8459 13.1908 26.8742 13.2014 26.899 13.2121L26.9114 13.2174C26.9273 13.2245 26.945 13.2298 26.961 13.2369C26.9946 13.2493 27.0229 13.2617 27.0495 13.2723C27.0831 13.2847 27.115 13.3006 27.1486 13.3148C27.1663 13.3219 27.1822 13.329 27.1964 13.3343C27.2212 13.3449 27.253 13.3591 27.2849 13.3732C27.3114 13.3839 27.3398 13.398 27.3699 13.4122C27.384 13.4193 27.4017 13.4264 27.4176 13.4352C27.446 13.4494 27.4778 13.4635 27.5062 13.4795C27.5292 13.4901 27.5557 13.5043 27.584 13.5184C27.6088 13.5308 27.6336 13.5432 27.6566 13.5574C27.6956 13.5769 27.7363 13.5999 27.777 13.6229C27.8106 13.6424 27.846 13.6619 27.8814 13.6832C27.8938 13.6902 27.908 13.6973 27.9221 13.7062C27.9487 13.7203 27.9699 13.7327 27.9876 13.7469C28.0195 13.7664 28.0514 13.7859 28.0814 13.8054C28.085 13.8071 28.0868 13.8089 28.0903 13.8107C28.1275 13.8337 28.1664 13.8603 28.2142 13.8921C28.2195 13.8939 28.2231 13.8974 28.2266 13.901C28.2602 13.924 28.2956 13.947 28.3275 13.9718C28.3417 13.9807 28.3558 13.9913 28.3682 14.0002C28.4018 14.025 28.4337 14.048 28.4656 14.071L28.4709 14.0745C28.5488 14.133 28.6231 14.1932 28.6921 14.2499C28.7081 14.2623 28.7222 14.2747 28.7382 14.2888C28.7594 14.3065 28.7842 14.3278 28.8072 14.3473C28.8196 14.3579 28.832 14.3685 28.8444 14.3809C28.8727 14.4057 28.8992 14.4287 28.9258 14.4535L28.9276 14.4553C28.9293 14.4571 28.9311 14.4588 28.9329 14.4606C28.9364 14.4624 28.9382 14.4659 28.9417 14.4677C28.9718 14.496 29.0037 14.5244 29.0338 14.5545L29.0426 14.5633C29.0497 14.5704 29.055 14.5757 29.0621 14.5828L29.0851 14.6058C29.101 14.6218 29.1187 14.6395 29.1347 14.6554C29.1825 14.7032 29.225 14.7493 29.2657 14.7936C29.3258 14.8591 29.3843 14.9264 29.4409 14.9919L29.4444 14.9955C29.448 14.999 29.4515 15.0025 29.4533 15.0061C29.4816 15.0397 29.5099 15.0734 29.5383 15.1088C29.5701 15.1478 29.6002 15.1867 29.6285 15.2257C29.6586 15.2629 29.687 15.3036 29.7153 15.3426L29.717 15.3443C29.717 15.3461 29.7188 15.3461 29.7206 15.3479C29.7224 15.3497 29.7241 15.3532 29.7259 15.355C29.7489 15.3868 29.7737 15.4223 29.7985 15.4577C29.848 15.5285 29.8994 15.6064 29.9542 15.6915C29.9755 15.7233 29.995 15.757 30.0144 15.7889C30.0746 15.888 30.1366 15.9961 30.2021 16.1165C30.2251 16.159 30.2445 16.1962 30.2622 16.2316C30.3808 16.4636 30.4924 16.7098 30.5915 16.9648C30.6057 16.9985 30.618 17.0339 30.6304 17.0675C30.6853 17.2145 30.7366 17.3615 30.7827 17.5103C30.7951 17.5475 30.8057 17.5846 30.8181 17.6218L30.8429 17.7015C30.8517 17.7334 30.8606 17.7653 30.8694 17.7972C30.8783 17.8255 30.8853 17.8556 30.8942 17.8839C30.903 17.9123 30.9101 17.9406 30.9172 17.9672C30.9349 18.0309 30.9508 18.0982 30.9703 18.1726C30.988 18.2452 31.0075 18.3267 31.0287 18.4241C31.0411 18.479 31.0517 18.5321 31.0623 18.5853C31.073 18.6402 31.0836 18.6933 31.0942 18.7482C31.1367 18.966 31.1739 19.1892 31.2057 19.4159C31.2199 19.5186 31.2305 19.6036 31.2394 19.6833C31.2553 19.8108 31.2695 19.9454 31.2854 20.0941V20.0995L31.0252 22.1414ZM25.975 13.8585L26.1148 13.9081C26.8247 14.156 27.4601 14.4854 28.0036 14.8857C28.6302 15.3479 29.1789 16.0173 29.6356 16.8763C29.9985 17.5616 30.3047 18.3674 30.5437 19.2724C30.8145 20.2943 30.9367 21.217 30.9898 21.7235L31.1916 20.103C31.1774 19.9578 31.1632 19.825 31.1473 19.6992C31.1385 19.6195 31.1278 19.5345 31.1137 19.4336C31.0818 19.2086 31.0446 18.9855 31.0039 18.7694C30.9933 18.7145 30.9827 18.6614 30.9721 18.6083C30.9614 18.5552 30.9508 18.502 30.9384 18.4489C30.9172 18.3515 30.8977 18.2718 30.88 18.1992C30.8623 18.1248 30.8446 18.0593 30.8269 17.9955C30.8198 17.9672 30.8128 17.9406 30.8039 17.9141V17.9123C30.7968 17.8839 30.788 17.8556 30.7809 17.8273C30.772 17.7954 30.7632 17.7635 30.7543 17.7334L30.7313 17.6537C30.7207 17.6165 30.7083 17.5793 30.6977 17.5439C30.6517 17.3969 30.6003 17.2499 30.5472 17.1065C30.5348 17.0728 30.5207 17.0392 30.5083 17.0055C30.4109 16.7523 30.3012 16.5097 30.1826 16.2794C30.1649 16.244 30.1454 16.2086 30.1242 16.1661C30.0605 16.0457 29.9985 15.9394 29.9383 15.842C29.9188 15.8101 29.8994 15.7782 29.8799 15.7464C29.825 15.6614 29.7755 15.5852 29.7259 15.5144C29.7029 15.4807 29.6781 15.4453 29.6533 15.4116C29.6516 15.4099 29.6498 15.4081 29.6498 15.4063C29.648 15.4046 29.6462 15.401 29.6445 15.3992C29.6161 15.3621 29.5878 15.3231 29.5595 15.2859C29.5312 15.2487 29.5011 15.2097 29.4692 15.1708C29.4409 15.1354 29.4126 15.1017 29.3843 15.0681L29.3825 15.0663C29.3807 15.0645 29.379 15.0628 29.379 15.061L29.3754 15.0557C29.3205 14.9901 29.2621 14.9246 29.2019 14.8591C29.1612 14.8148 29.1205 14.7705 29.0727 14.7227C29.0568 14.7068 29.0409 14.6891 29.0232 14.6731L28.9984 14.6483C28.9913 14.6413 28.986 14.6359 28.9807 14.6306L28.9718 14.6218C28.9417 14.5934 28.9116 14.5651 28.8798 14.535C28.8762 14.5315 28.8745 14.5297 28.8727 14.5279C28.8709 14.5261 28.8674 14.5226 28.8656 14.5208C28.8391 14.496 28.8125 14.473 28.7842 14.4482L28.7824 14.4464C28.7718 14.4358 28.7612 14.427 28.7488 14.4163C28.7258 14.3951 28.7028 14.3774 28.6815 14.3579C28.6656 14.3437 28.6514 14.3313 28.6355 14.3189C28.5665 14.2623 28.4939 14.2038 28.4178 14.1454C28.416 14.1436 28.4125 14.1418 28.4107 14.1401C28.3788 14.117 28.3487 14.094 28.3169 14.071C28.3045 14.0621 28.2903 14.0515 28.2762 14.0427C28.2425 14.0179 28.2089 13.9948 28.1753 13.9736L28.1717 13.9718L28.17 13.9701L28.1664 13.9683C28.1222 13.9382 28.085 13.9134 28.0496 13.8921L28.039 13.885C28.0071 13.8656 27.9752 13.8443 27.9434 13.8248L27.9416 13.8231C27.9239 13.8107 27.9044 13.8 27.8796 13.7859L27.8779 13.7841C27.8655 13.7752 27.8531 13.7682 27.8425 13.7628L27.8407 13.7611C27.8071 13.7398 27.7717 13.7203 27.738 13.7026C27.6973 13.6796 27.6566 13.6566 27.6194 13.6371C27.5947 13.6247 27.5716 13.6105 27.5469 13.5999C27.5185 13.5857 27.4955 13.5734 27.4707 13.561C27.4407 13.545 27.4106 13.5308 27.3822 13.5167C27.3663 13.5096 27.3504 13.5007 27.3362 13.4937C27.3061 13.4795 27.2796 13.4671 27.253 13.4547C27.2212 13.4388 27.1893 13.4264 27.1663 13.4157C27.1521 13.4086 27.138 13.4033 27.1203 13.3963C27.0884 13.3821 27.0548 13.3679 27.0229 13.3555C26.9964 13.3449 26.9698 13.3343 26.9344 13.3201C26.9185 13.313 26.9025 13.3077 26.8866 13.3006L26.8742 13.2953C26.8477 13.2847 26.8211 13.2741 26.7928 13.2652H26.791C26.7574 13.2528 26.7308 13.2422 26.7061 13.2333H26.7043C26.6848 13.2262 26.6636 13.2192 26.6441 13.2121C26.6069 13.1979 26.5715 13.1855 26.529 13.1731C26.5149 13.1678 26.5025 13.1643 26.4883 13.1607L26.4795 13.1572C26.4494 13.1465 26.4175 13.1359 26.3857 13.1271C26.3432 13.1129 26.3042 13.1005 26.2653 13.0899C26.2617 13.0881 26.2564 13.0881 26.2529 13.0863C26.2476 13.0846 26.2423 13.0828 26.237 13.081C26.1945 13.0686 26.1502 13.0562 26.1095 13.0456C26.0883 13.0385 26.0653 13.0332 26.0458 13.0279H26.044C26.0051 13.0173 25.9626 13.0066 25.9237 12.996C25.9113 12.9925 25.9006 12.9907 25.89 12.9872C25.8334 12.973 25.7874 12.9624 25.7413 12.9517C25.7307 12.9482 25.7201 12.9464 25.7095 12.9446L25.7042 12.9429C25.6546 12.9323 25.6033 12.9216 25.5572 12.911L25.5201 12.9039C25.4793 12.8951 25.4369 12.888 25.3944 12.8791C25.3767 12.9694 25.3661 13.0243 25.3661 13.0243L25.359 13.058L24.5624 13.0987L24.5536 13.0137C24.7023 12.9907 24.7589 12.934 24.8156 12.8791C24.8439 12.8508 24.8722 12.8242 24.9076 12.803C24.8262 12.7923 24.743 12.7817 24.6562 12.7711L24.5907 12.764L24.6244 12.7073C24.9324 12.192 25.2315 11.411 25.0616 10.9027C24.9979 10.7097 24.8669 10.5733 24.6757 10.4954C24.1323 10.274 23.4702 10.9452 23.1162 11.3738L23.1304 11.6129C23.3481 11.3933 24.0172 10.7716 24.4651 11.0072C24.5252 11.0391 24.5642 11.0904 24.5837 11.1595C24.6456 11.3826 24.4863 11.8059 24.1146 12.4187C23.9004 12.7693 23.5057 12.9836 23.0808 12.9801H23.0791C22.8967 12.9801 21.7692 12.9393 21.7037 12.9358C20.5301 12.9659 19.5335 13.0792 18.659 13.2829C18.6555 13.2847 18.6537 13.2847 18.6502 13.2847C16.3879 13.8107 15.0126 14.8945 13.8991 17.0286C13.8814 17.0622 13.8637 17.0959 13.8425 17.1366C13.8425 17.1384 13.8407 17.1401 13.8407 17.1419C13.4637 18.0593 13.2247 19.1059 13.1097 20.3368C13.4407 19.3964 13.8354 18.3515 14.3328 17.404C14.9913 16.1519 15.6994 15.3142 16.4995 14.8414C18.413 13.7097 21.2965 13.1501 23.8473 13.4175L24.1234 13.4458L23.8526 13.5025C23.5517 13.5645 23.3623 13.6832 23.3463 13.8195C23.3127 14.094 23.9252 14.4039 24.6828 14.496C25.4404 14.5864 26.1077 14.4305 26.1414 14.156C26.1485 14.1011 26.1272 14.0409 26.0794 13.9807L25.975 13.8585ZM28.1682 13.9683C28.1682 13.9683 28.1682 13.9701 28.1682 13.9683V13.9683Z" fill="#1A1A5A"/>
</g>
</g>
</g>
<g opacity="0.35">
<g opacity="0.35">
<g opacity="0.35">
<path opacity="0.35" d="M24.3463 13.067H24.341L24.5481 13.0564C24.4932 13.0653 24.4277 13.0688 24.3463 13.067Z" fill="white"/>
</g>
</g>
<g opacity="0.35">
<g opacity="0.35">
<path opacity="0.35" d="M24.3871 13.1094C24.3747 13.1094 24.3606 13.1094 24.3464 13.1094H24.3411L24.3393 13.0226L24.5464 13.012L24.5553 13.097C24.5057 13.1058 24.4509 13.1094 24.3871 13.1094Z" fill="#1A1A5A"/>
</g>
</g>
</g>
<g opacity="0.35">
<g opacity="0.35">
<g opacity="0.35">
<path opacity="0.35" d="M25.3501 12.8298C25.327 12.9449 25.3129 13.0175 25.3129 13.0175L24.55 13.0564C24.9252 12.9962 24.7783 12.7323 25.2527 12.8138C25.2863 12.8191 25.3182 12.8244 25.3501 12.8298Z" fill="white"/>
</g>
</g>
<g opacity="0.35">
<g opacity="0.35">
<path opacity="0.35" d="M24.5534 13.0988L24.5446 13.0137C24.6915 12.9907 24.7499 12.9341 24.8066 12.8792C24.8898 12.7977 24.9694 12.7215 25.2615 12.7711C25.2721 12.7729 25.2827 12.7747 25.2916 12.7764C25.3146 12.78 25.3358 12.7835 25.3589 12.7888L25.4013 12.7977L25.3925 12.8402C25.3695 12.9553 25.3553 13.0279 25.3553 13.0279L25.3482 13.0616L24.5534 13.0988ZM25.0969 12.8402C24.9694 12.8402 24.9216 12.8862 24.8668 12.9394C24.8473 12.9588 24.826 12.9783 24.7995 12.9996L25.2774 12.9748C25.2827 12.95 25.2898 12.911 25.2987 12.8632C25.2916 12.8614 25.2845 12.8614 25.2757 12.8597C25.265 12.8579 25.2544 12.8561 25.2456 12.8544C25.1872 12.8455 25.1376 12.8402 25.0969 12.8402Z" fill="#1A1A5A"/>
</g>
</g>
</g>
<g opacity="0.35">
<g opacity="0.35">
<g opacity="0.35">
<path opacity="0.35" d="M25.3501 12.8298C25.327 12.9449 25.3129 13.0175 25.3129 13.0175L24.55 13.0564C24.9252 12.9962 24.7783 12.7323 25.2527 12.8138C25.2863 12.8191 25.3182 12.8244 25.3501 12.8298Z" fill="white"/>
</g>
</g>
<g opacity="0.35">
<g opacity="0.35">
<path opacity="0.35" d="M24.5534 13.0988L24.5446 13.0137C24.6915 12.9907 24.7499 12.9341 24.8066 12.8792C24.8898 12.7977 24.9694 12.7215 25.2615 12.7711C25.2721 12.7729 25.2827 12.7747 25.2916 12.7764C25.3146 12.78 25.3358 12.7835 25.3589 12.7888L25.4013 12.7977L25.3925 12.8402C25.3695 12.9553 25.3553 13.0279 25.3553 13.0279L25.3482 13.0616L24.5534 13.0988ZM25.0969 12.8402C24.9694 12.8402 24.9216 12.8862 24.8668 12.9394C24.8473 12.9588 24.826 12.9783 24.7995 12.9996L25.2774 12.9748C25.2827 12.95 25.2898 12.911 25.2987 12.8632C25.2916 12.8614 25.2845 12.8614 25.2757 12.8597C25.265 12.8579 25.2544 12.8561 25.2456 12.8544C25.1872 12.8455 25.1376 12.8402 25.0969 12.8402Z" fill="#1A1A5A"/>
</g>
</g>
</g>
<path d="M22.548 44.1514C21.2186 44.1514 19.9494 44.0558 18.7723 43.8698C17.6766 43.6963 16.6552 43.4413 15.7383 43.1119C14.0425 42.5044 12.7344 41.6614 11.9555 40.6732C11.3555 39.9134 10.8421 38.7286 10.5819 37.5049C10.52 37.2144 10.4651 36.6778 10.4191 35.9128C10.3854 35.362 10.3695 34.9015 10.3677 34.8519V34.8342C10.366 34.813 10.366 34.8006 10.366 34.8006C10.366 34.7953 10.366 34.7829 10.3677 34.7687C10.5253 32.2875 11.005 30.2049 12.0228 27.5838C12.6016 26.0979 12.8636 24.7431 12.7822 23.6699C12.745 23.1935 12.7273 22.6781 12.7273 22.138C12.7273 20.0836 12.9946 18.4242 13.5433 17.0694V17.0641L13.5646 17.0163L13.5787 16.9808L13.5805 16.9791C13.8779 16.3256 14.2673 15.7252 14.7417 15.1939C15.2303 14.6467 15.8091 14.1685 16.4641 13.7754C17.7315 13.0121 19.2609 12.5622 21.0151 12.4347C21.0044 12.417 20.9956 12.4011 20.985 12.3834C20.8221 12.1088 20.638 11.7989 20.5725 11.4554C20.4893 11.0215 20.6168 10.6442 20.9549 10.329C21.2222 10.0811 21.5426 9.99782 21.8807 10.0881C22.3515 10.2157 22.7533 10.6619 22.9587 11.0941C23.4012 10.5769 24.1075 9.95178 24.7731 10.221C25.0492 10.3325 25.2421 10.5415 25.3324 10.8249C25.5094 11.3934 25.2404 12.1443 24.9695 12.6579C26.1166 12.8899 27.1185 13.2777 27.9487 13.8125C28.8054 14.3651 29.5082 15.0912 30.0392 15.9732C30.9526 17.4891 31.3969 19.5045 31.3969 22.1344C31.3969 22.4479 31.3898 22.7614 31.3774 23.066C31.3332 24.0666 31.3402 25.9846 31.8677 27.605C32.5156 29.5956 32.8767 31.0797 33.0378 32.4186C33.0378 32.4239 33.0396 32.4328 33.0396 32.4416C33.1139 33.0703 33.1511 33.6742 33.1582 34.4605V34.4623C33.1582 34.4659 33.1582 34.4694 33.1582 34.4747C33.1582 34.4818 33.1582 34.4907 33.1582 34.4977C33.1599 34.5969 33.1599 34.6979 33.1599 34.7953V34.8378C33.1599 36.182 32.9741 37.2782 32.5917 38.1903C32.2377 39.0333 31.7934 40.0108 31.0145 40.93C30.1383 41.9625 28.9789 42.7594 27.469 43.3686C26.1768 43.8964 24.5659 44.1514 22.548 44.1514ZM10.8616 34.8395C10.8634 34.9068 10.8793 35.3514 10.9129 35.8827C10.9572 36.6123 11.0103 37.1383 11.0652 37.4022C11.3537 38.7605 11.9148 39.8249 12.3432 40.3686C13.0654 41.2824 14.2974 42.0723 15.9065 42.6479C17.7775 43.3191 20.0114 43.6591 22.548 43.6591C24.5022 43.6591 26.0511 43.4165 27.2866 42.9188C30.3861 41.6685 31.3845 39.8072 32.1403 38.0061C32.4979 37.156 32.6714 36.1217 32.6714 34.8449V34.8024C32.6714 34.7014 32.6714 34.6058 32.6696 34.5101V34.5066C32.6696 34.5031 32.6696 34.4977 32.6696 34.4942C32.6696 34.4871 32.6696 34.4783 32.6696 34.4712C32.6608 33.7008 32.6271 33.1111 32.5528 32.4983L32.551 32.4824C32.3935 31.1754 32.0377 29.7196 31.4022 27.7627C30.8499 26.0678 30.8428 24.0825 30.8889 23.05C30.9012 22.7525 30.9083 22.4461 30.9083 22.1398C30.9083 16.6993 28.8851 13.8214 24.5429 13.0829L24.173 13.0191L24.3783 12.7057C24.7164 12.1903 25.0014 11.4075 24.8669 10.9772C24.8226 10.8337 24.7341 10.7399 24.5925 10.6814C24.2066 10.5238 23.6136 11.0533 23.187 11.6006C23.1091 11.7015 22.9817 11.7493 22.856 11.7263C22.7303 11.7033 22.6294 11.613 22.5905 11.489C22.479 11.1206 22.1179 10.6619 21.7567 10.5645C21.5868 10.5185 21.4346 10.5592 21.2947 10.6903C20.854 11.1012 21.0646 11.5474 21.4133 12.1319C21.5054 12.2859 21.5921 12.4329 21.6452 12.5675L21.7691 12.8863L21.4275 12.9023C17.8235 13.0652 15.1949 14.5918 14.0195 17.2058C14.0177 17.2111 14.0142 17.2164 14.0124 17.2217C13.4796 18.5234 13.2194 20.1314 13.2194 22.138C13.2194 22.664 13.2371 23.1669 13.2743 23.6327C13.3628 24.7962 13.0955 26.1847 12.483 27.7627C11.4829 30.3377 11.012 32.3796 10.8598 34.8094C10.8598 34.8218 10.8616 34.8307 10.8616 34.8395Z" fill="#1A1A5A"/>
<path d="M26.4227 20.8272C26.4776 20.7068 26.5555 20.5988 26.6493 20.5013C26.7413 20.4039 26.8493 20.3207 26.9679 20.2516C27.0865 20.1843 27.2175 20.133 27.3556 20.1029C27.391 20.0958 27.4264 20.0905 27.4618 20.0852C27.4972 20.0816 27.5326 20.0763 27.5698 20.0763C27.6423 20.0728 27.7149 20.0763 27.7875 20.0852C27.9326 20.1046 28.076 20.1507 28.2052 20.2215C28.3327 20.2924 28.446 20.3862 28.5345 20.4925C28.6248 20.5988 28.692 20.7156 28.7434 20.8343C28.7929 20.9547 28.823 21.0787 28.8354 21.2027C28.8442 21.2948 28.777 21.3762 28.6849 21.3851C28.6283 21.3904 28.5752 21.3674 28.5416 21.3266L28.5327 21.316C28.4619 21.231 28.4017 21.1495 28.3362 21.0787C28.2707 21.0061 28.2035 20.9423 28.1362 20.8892C28.0672 20.8361 27.9999 20.7918 27.9291 20.7617C27.8583 20.7298 27.7857 20.7068 27.7078 20.6979C27.6689 20.6908 27.6299 20.6908 27.591 20.6908C27.5715 20.6908 27.5503 20.6926 27.5308 20.6926C27.5113 20.6944 27.4901 20.6979 27.4706 20.6997C27.3892 20.7103 27.306 20.7333 27.2246 20.7652C27.1432 20.7971 27.0635 20.8378 26.9856 20.8874C26.9077 20.937 26.8351 20.9955 26.7626 21.0592L26.752 21.0681C26.667 21.1442 26.536 21.1371 26.4599 21.0521C26.3997 20.9901 26.3891 20.8998 26.4227 20.8272Z" fill="#1A1A5A"/>
<path d="M20.9743 21.0699C20.9035 21.0079 20.8327 20.953 20.7566 20.9034C20.6805 20.8556 20.6026 20.8131 20.5229 20.7795C20.3636 20.7122 20.1972 20.6785 20.0432 20.6856C19.9654 20.6891 19.8928 20.7033 19.8202 20.7263C19.7494 20.7493 19.6804 20.7812 19.6113 20.8237C19.5423 20.8662 19.4733 20.9176 19.406 20.9813C19.3387 21.0433 19.2732 21.1159 19.2007 21.1921L19.1918 21.201C19.1281 21.2683 19.0219 21.2718 18.9546 21.2063C18.9139 21.1673 18.8962 21.1124 18.9033 21.061C18.921 20.9388 18.9599 20.8202 19.0166 20.7051C19.0307 20.6767 19.0484 20.6484 19.0644 20.6201C19.0821 20.5917 19.1015 20.5652 19.1192 20.5386C19.1582 20.4855 19.2024 20.4341 19.252 20.3863C19.3511 20.2907 19.4715 20.2127 19.6025 20.1578C19.7335 20.1029 19.8751 20.0746 20.0149 20.0693C20.1548 20.064 20.2928 20.0817 20.422 20.1171C20.5513 20.1525 20.6752 20.2074 20.7867 20.2747C20.8982 20.342 21.0009 20.4253 21.0894 20.5191C21.1779 20.613 21.2522 20.7192 21.3071 20.8361C21.3549 20.9406 21.3089 21.0628 21.2062 21.1106C21.1301 21.1461 21.0434 21.1301 20.9832 21.0788L20.9743 21.0699Z" fill="#1A1A5A"/>
<path d="M6.14239 29.2803C6.17425 29.3174 6.20789 29.3564 6.24152 29.3936C7.6116 30.9308 9.58353 32.2077 11.7059 32.4096C11.736 32.4131 11.7679 32.4149 11.798 32.4167C11.805 32.4167 11.8104 32.4185 11.8157 32.4185L12.8282 28.4727L12.853 28.3735C12.853 28.3735 11.2616 27.7129 8.27717 26.9124C7.91606 26.815 7.59213 26.7672 7.3036 26.7584C7.15668 26.753 7.01861 26.7601 6.89116 26.7743C5.49629 26.9425 5.229 28.2247 6.14239 29.2803Z" fill="#575B5A"/>
<g opacity="0.35">
<g opacity="0.35">
<g opacity="0.35">
<path opacity="0.35" d="M7.30529 26.7603C7.59028 27.01 8.14256 27.4067 9.1303 27.8335C10.2773 28.3276 11.9218 28.4462 12.8281 28.4728L12.8529 28.3736C12.8529 28.3736 11.2615 27.713 8.27709 26.9126C7.91953 26.8152 7.59382 26.7673 7.30529 26.7603Z" fill="white"/>
</g>
</g>
</g>
<g opacity="0.3">
<g opacity="0.3">
<g opacity="0.3">
<path opacity="0.3" d="M6.14239 29.2803C6.17425 29.3175 6.20789 29.3565 6.24152 29.3937C7.6116 30.9309 9.58353 32.2078 11.7059 32.4097C11.736 32.4132 11.7679 32.415 11.798 32.4167C11.0368 32.0625 7.45229 30.3075 6.84513 28.455C6.51766 27.4562 6.65927 26.9886 6.89293 26.7761C5.49629 26.9426 5.229 28.2248 6.14239 29.2803Z" fill="#1A1A5A"/>
</g>
</g>
</g>
<path d="M11.8192 32.6647C11.8139 32.6647 11.8068 32.6647 11.8015 32.6647C11.7625 32.6611 11.7254 32.6594 11.6864 32.6558C10.6403 32.5567 9.59411 32.2078 8.57098 31.6163C7.65936 31.0903 6.79199 30.3783 6.06093 29.5584C6.02907 29.5229 5.99543 29.4858 5.95826 29.4415C5.34226 28.7313 5.19357 27.8741 5.57768 27.2596C5.79187 26.9178 6.14944 26.6823 6.61144 26.576C7.09823 26.4644 7.6806 26.4981 8.3444 26.677C11.3094 27.4704 12.9344 28.1416 12.9503 28.1469C13.076 28.1982 13.1344 28.3435 13.083 28.4674C13.0317 28.5932 12.8866 28.6516 12.7626 28.6003C12.7467 28.5932 11.1483 27.9344 8.21695 27.1498C7.14779 26.8629 6.3176 27.001 5.99366 27.5199C5.72637 27.9468 5.85913 28.5737 6.32999 29.1192C6.36539 29.1599 6.39548 29.1953 6.42558 29.2272L6.42735 29.229C7.93196 30.9167 9.86494 31.9864 11.7324 32.1635C11.7661 32.167 11.8015 32.1688 11.8369 32.1724C11.9714 32.1812 12.0741 32.2999 12.0652 32.4345C12.0546 32.5655 11.9466 32.6647 11.8192 32.6647Z" fill="#1A1A5A"/>
<path d="M25.4652 22.4692C25.4652 22.4692 25.3784 23.0289 25.1324 23.5194C24.9395 23.9037 24.6509 24.2438 24.2314 24.2438C23.7552 24.2438 23.4331 23.9037 23.2189 23.4946C22.9003 22.889 22.8188 22.1345 22.8188 22.1345L25.4652 22.4692Z" fill="#1A1A5A"/>
<path d="M25.1323 23.521C24.9394 23.9053 24.6508 24.2453 24.2313 24.2453C23.7552 24.2453 23.433 23.9053 23.2188 23.4962C23.4684 23.335 23.7976 23.2358 24.1587 23.2358C24.5358 23.2358 24.8792 23.3439 25.1323 23.521Z" fill="#ED2E7A"/>
<path d="M24.2313 24.4916C22.8417 24.4916 22.5868 22.2584 22.5762 22.1627L23.0648 22.1096C23.0648 22.1149 23.1214 22.6179 23.3144 23.1102C23.5445 23.7 23.8543 23.9993 24.2313 23.9993C24.5889 23.9993 24.8349 23.6026 24.9783 23.2678C25.1553 22.857 25.2226 22.4355 25.2226 22.4302L25.7076 22.5063C25.7041 22.5258 25.6315 22.9863 25.4332 23.452C25.0668 24.311 24.5782 24.4916 24.2313 24.4916Z" fill="#1A1A5A"/>
<path d="M26.1821 21.991C26.1821 22.0017 26.1821 22.0123 26.1821 22.0212C26.1644 22.1469 24.7323 22.3346 24.0455 22.409C23.4277 22.4763 22.7091 22.1079 22.5728 22.0353C22.5568 22.0265 22.5497 22.0229 22.5497 22.0229C22.5497 22.0229 23.0507 21.0666 24.019 20.9497C24.9571 20.8364 26.1555 21.6298 26.1821 21.991Z" fill="#FEC212"/>
<g opacity="0.35">
<g opacity="0.35">
<g opacity="0.35">
<path opacity="0.35" d="M26.182 21.9911C26.182 22.0017 26.182 22.0123 26.182 22.0212C26.1643 22.1469 24.7323 22.3346 24.0455 22.409C23.4277 22.4763 22.709 22.1079 22.5727 22.0353C22.9285 21.9716 23.7799 21.8388 24.6809 21.8618C25.3377 21.8759 25.8528 21.9397 26.182 21.9911Z" fill="#1A1A5A"/>
</g>
</g>
</g>
<path d="M24.2437 22.7365C24.1782 22.7365 24.1091 22.7365 24.0401 22.7347C23.2772 22.7188 22.7249 22.4567 22.516 22.3575C22.5001 22.3504 22.4859 22.3433 22.4753 22.338C22.408 22.3079 22.3549 22.2495 22.3301 22.1786C22.3054 22.1078 22.3107 22.0281 22.3425 21.9608C22.3479 21.9502 22.3549 21.936 22.362 21.9183C22.4275 21.7784 22.562 21.488 22.8152 21.2152C23.1373 20.8663 23.5356 20.6715 23.9976 20.6326C24.5605 20.5865 25.1216 20.7176 25.5801 21.0009C26.0085 21.2666 26.3129 21.6438 26.4191 22.0352C26.4422 22.122 26.4209 22.2141 26.3625 22.2884C26.2598 22.4195 25.9979 22.5293 25.589 22.6125C25.3128 22.6727 24.8632 22.7365 24.2437 22.7365ZM22.8789 21.9821C23.1179 22.0848 23.5285 22.2318 24.0507 22.2424C25.0278 22.2637 25.6527 22.1184 25.8916 22.0228C25.6722 21.5606 24.98 21.047 24.0383 21.1231C23.3728 21.178 23.0347 21.6828 22.8789 21.9821Z" fill="#1A1A5A"/>
<path d="M28.7366 29.2081C28.5277 29.256 28.3153 29.3002 28.0993 29.3374C27.4284 29.4543 26.5806 29.5535 25.6459 29.6243C23.1058 29.8156 19.9142 29.7943 17.7918 29.3374C14.8906 28.714 11.7805 28.3563 11.7433 27.7223C11.7132 27.1998 12.1062 26.6703 12.2159 25.9725C12.2407 25.8238 12.2495 25.6679 12.2407 25.5014C12.2088 24.9489 12.2 24.345 12.3097 23.9129C12.3876 23.61 12.5221 23.3904 12.747 23.332C12.747 23.332 18.2273 26.0416 25.0954 25.3934C25.2636 25.3775 25.4317 25.3598 25.6017 25.3403C26.623 25.2199 27.4585 25.0977 28.14 24.9737C31.6449 24.345 31.1139 23.7411 31.1139 23.7411L31.1333 22.9778C31.1333 22.9778 31.5883 23.0238 31.8715 23.5587C31.9051 23.6207 31.914 23.7995 31.9157 24.0475C31.9193 24.6478 31.8732 25.652 31.9936 26.3568C32.0379 26.6172 32.1051 26.8368 32.206 26.9785C32.6556 27.6107 30.9386 28.6946 28.7366 29.2081Z" fill="#A4BC46"/>
<path d="M22.5904 29.7798C20.8982 29.7798 19.144 29.6717 17.7828 29.3795C17.0163 29.2148 16.2463 29.0696 15.5011 28.9315C14.4939 28.742 13.5415 28.5649 12.8583 28.3789C12.0723 28.1646 11.7147 27.9645 11.7024 27.7254C11.6864 27.4314 11.7997 27.1339 11.9201 26.8187C12.021 26.553 12.1272 26.2785 12.175 25.9668C12.1998 25.8092 12.2086 25.6587 12.1998 25.5046C12.1714 25.0016 12.152 24.3641 12.2688 23.9018C12.3573 23.5547 12.5148 23.3475 12.7379 23.2891L12.7538 23.2855L12.768 23.2926C12.7821 23.2997 14.1611 23.9762 16.3613 24.5642C18.3917 25.1079 21.5531 25.6835 25.0934 25.3505C25.2846 25.3328 25.4457 25.3151 25.5997 25.2974C26.5573 25.1858 27.4105 25.0618 28.1363 24.9326C30.6215 24.4863 31.0304 24.0541 31.0924 23.8894C31.1207 23.8151 31.0871 23.7726 31.0853 23.7708L31.0747 23.7584V23.7424L31.0959 22.9331L31.1419 22.9384C31.1614 22.9402 31.6234 22.9933 31.9155 23.5406C31.9491 23.6043 31.9633 23.7513 31.9651 24.0488C31.9651 24.1799 31.9633 24.3304 31.9615 24.4898C31.9544 25.0742 31.9474 25.8021 32.0412 26.3493C32.089 26.6239 32.158 26.8275 32.2465 26.9533C32.335 27.079 32.3492 27.2225 32.289 27.3801C32.0412 28.0336 30.5189 28.8376 28.7487 29.2502C28.5381 29.2998 28.3239 29.3423 28.1097 29.3795C27.4371 29.4964 26.5874 29.5956 25.6528 29.6664C24.7358 29.7355 23.6755 29.7798 22.5904 29.7798ZM12.745 23.3776C12.5626 23.4343 12.4299 23.6167 12.352 23.9231C12.2369 24.38 12.2582 25.0406 12.2847 25.4993C12.2936 25.6587 12.2865 25.8163 12.2599 25.9792C12.2104 26.2998 12.1024 26.5796 11.9997 26.8488C11.8776 27.1675 11.7714 27.4438 11.7873 27.7201C11.8121 28.1522 13.6123 28.4887 15.517 28.8464C16.2622 28.9864 17.034 29.1298 17.8022 29.2963C20.0255 29.7744 23.3109 29.7585 25.6439 29.5814C26.575 29.5106 27.4229 29.4114 28.0938 29.2945C28.3062 29.2573 28.5204 29.2148 28.7275 29.1652C29.5842 28.9651 30.4109 28.6676 31.057 28.324C31.6854 27.9911 32.0943 27.6439 32.2058 27.3482C32.2554 27.2189 32.2447 27.102 32.1739 27.0011C32.0766 26.8629 32.004 26.6522 31.9544 26.3617C31.8589 25.8057 31.8677 25.0742 31.8748 24.4863C31.8766 24.3269 31.8783 24.1763 31.8783 24.0453C31.8783 23.9373 31.8766 23.6486 31.8394 23.5777C31.6217 23.1704 31.2995 23.0571 31.1809 23.0287L31.1632 23.7265C31.1809 23.7548 31.2092 23.8204 31.1774 23.9107C31.0818 24.1834 30.4799 24.5961 28.154 25.014C27.4264 25.1451 26.5715 25.2673 25.6121 25.3806C25.4581 25.3983 25.297 25.416 25.104 25.4337C23.5339 25.5825 21.9072 25.5648 20.268 25.3842C18.9564 25.2389 17.6341 24.991 16.3383 24.6439C14.2531 24.0896 12.9007 23.452 12.745 23.3776Z" fill="#1A1A5A"/>
<g opacity="0.35">
<g opacity="0.35">
<g opacity="0.35">
<path opacity="0.35" d="M26.3289 29.5654C26.49 29.5495 26.6475 29.5335 26.8015 29.5176C26.6475 29.5353 26.49 29.5512 26.3289 29.5654Z" fill="black"/>
</g>
</g>
<g opacity="0.35">
<g opacity="0.35">
<path opacity="0.35" d="M26.3343 29.6096L26.3254 29.5246C26.4865 29.5087 26.644 29.4927 26.7963 29.4768L26.8051 29.5618C26.6529 29.5777 26.4936 29.5937 26.3343 29.6096Z" fill="#1A1A5A"/>
</g>
</g>
</g>
<g opacity="0.35">
<g opacity="0.35">
<g opacity="0.35">
<path opacity="0.35" d="M27.2743 29.461C27.4212 29.4416 27.5628 29.4221 27.6991 29.4026C27.5628 29.4238 27.4212 29.4433 27.2743 29.461Z" fill="black"/>
</g>
</g>
<g opacity="0.35">
<g opacity="0.35">
<path opacity="0.35" d="M27.2795 29.5036L27.2689 29.4186C27.4353 29.3973 27.5698 29.3778 27.692 29.3601L27.7044 29.4451C27.5787 29.4646 27.4389 29.4841 27.2795 29.5036Z" fill="#1A1A5A"/>
</g>
</g>
</g>
<g opacity="0.35">
<g opacity="0.35">
<g opacity="0.35">
<path opacity="0.35" d="M27.9698 29.3604C27.883 29.3745 27.7945 29.3887 27.7043 29.4029C27.7945 29.3869 27.883 29.3745 27.9698 29.3604Z" fill="black"/>
</g>
</g>
<g opacity="0.35">
<g opacity="0.35">
<path opacity="0.35" d="M27.7096 29.4449L27.6972 29.3599L27.7503 29.351C27.8229 29.3404 27.8937 29.328 27.9627 29.3174L27.9769 29.4024C27.876 29.4183 27.791 29.4325 27.7096 29.4449Z" fill="#1A1A5A"/>
</g>
</g>
</g>
<g opacity="0.6">
<g opacity="0.6">
<g opacity="0.6">
<path opacity="0.6" d="M31.919 24.0469C31.1632 25.4566 26.1448 26.6042 19.9742 25.8799C14.9682 25.2919 13.0335 24.4117 12.3113 23.9141C12.3891 23.6112 12.5237 23.3916 12.7485 23.3332C12.7485 23.3332 18.5014 26.1774 25.6032 25.3415C31.873 24.6048 31.1154 23.7423 31.1154 23.7423L31.1348 22.979C31.1348 22.979 31.5898 23.025 31.873 23.5599C31.9084 23.6201 31.9172 23.799 31.919 24.0469Z" fill="white"/>
</g>
</g>
</g>
<g opacity="0.3">
<g opacity="0.3">
<g opacity="0.3">
<path opacity="0.3" d="M28.7363 29.2075C28.6638 29.2252 28.5912 29.2411 28.5168 29.2553C28.4531 29.2695 28.3876 29.2819 28.3221 29.2943C28.2478 29.3084 28.1734 29.3226 28.0991 29.335C28.0566 29.3421 28.0141 29.3492 27.9699 29.3562C27.8831 29.3704 27.7946 29.3846 27.7044 29.3987C27.7026 29.3987 27.7008 29.3987 27.699 29.3987C27.5627 29.4182 27.4211 29.4377 27.2742 29.4572C27.2689 29.4572 27.2636 29.459 27.2565 29.459C27.1627 29.4714 27.0671 29.4837 26.9698 29.4944C26.9131 29.4997 26.8565 29.5068 26.7998 29.5139C26.6458 29.5316 26.49 29.5475 26.3272 29.5617C26.1059 29.5829 25.8776 29.6024 25.6439 29.6201C23.1038 29.8114 19.9122 29.7901 17.7898 29.3332C14.8886 28.7098 11.7785 28.3521 11.7413 27.7181C11.7112 27.1956 11.9891 26.9849 12.0989 26.2871C12.2847 26.5651 12.745 26.8025 13.3698 27.0717C15.2108 27.8633 20.8805 28.8143 25.127 28.3981C25.1288 28.3981 25.1306 28.3981 25.1324 28.3981C25.3926 28.3733 25.5944 28.1608 25.6121 27.9005C25.628 27.672 25.6545 27.4489 25.6953 27.2488C25.9802 25.8922 25.8811 25.5291 25.0952 25.5486C24.9359 25.5521 24.9571 25.4902 25.0934 25.3892C25.2616 25.3733 25.4297 25.3556 25.5997 25.3361C26.621 25.2157 27.4565 25.0935 28.138 24.9695L28.3699 26.1667L28.5788 27.9288L28.7363 29.2075Z" fill="#1A1A5A"/>
</g>
</g>
</g>
<g opacity="0.3">
<g opacity="0.3">
<g opacity="0.3">
<path opacity="0.3" d="M28.7363 29.2078L28.5841 27.9327C30.2869 27.5962 31.4765 27.1198 31.9951 26.3547C32.0394 26.6151 32.1066 26.8347 32.2075 26.9764C32.6554 27.6104 30.9383 28.6942 28.7363 29.2078Z" fill="#1A1A5A"/>
</g>
</g>
</g>
<path d="M22.6028 29.9834C20.6786 29.9834 18.9669 29.8417 17.7402 29.5779C16.8587 29.3884 15.9665 29.2343 15.1027 29.0855C14.1557 28.9208 13.26 28.7668 12.6192 28.6003C11.9944 28.4373 11.4155 28.2284 11.4155 27.8016C11.4155 27.1516 11.5978 26.7744 11.7607 26.4414C11.9041 26.1457 12.0174 25.9137 11.9944 25.5188C11.9306 24.4278 11.9643 23.2855 12.6829 23.096L12.7714 23.073L12.8546 23.1137C12.8688 23.1208 14.3061 23.8239 16.5861 24.4172C18.6855 24.9627 21.9478 25.5241 25.573 25.099C27.5804 24.8635 29.0655 24.5908 29.9913 24.2915C30.6356 24.0825 30.8268 23.916 30.8799 23.8505L30.8657 23.8345L30.8941 22.71L31.1578 22.7365C31.1826 22.7383 31.7473 22.8021 32.0889 23.4449C32.1668 23.5901 32.1668 23.8558 32.1597 24.4934C32.1508 25.2265 32.1367 26.4556 32.4075 26.8381C32.5385 27.0241 32.558 27.2508 32.4642 27.4775C32.2517 27.9893 31.5171 28.4303 30.9383 28.7101C30.1311 29.0997 29.1363 29.4096 28.138 29.5832C26.8298 29.8116 24.9446 29.9604 23.0984 29.9834C22.9338 29.9817 22.7674 29.9834 22.6028 29.9834ZM11.9094 27.7839C11.9235 27.8016 11.9802 27.8582 12.1625 27.9362C12.3342 28.0088 12.5714 28.0814 12.8865 28.1593C13.4937 28.3081 14.3168 28.4497 15.1894 28.6003C16.0179 28.7437 16.956 28.9049 17.8464 29.0979C20.7848 29.7302 25.75 29.4982 28.0583 29.0962C29.0124 28.9297 29.9612 28.6339 30.7294 28.2638C31.418 27.9308 31.8977 27.566 32.0145 27.2862C32.0517 27.1977 32.034 27.1534 32.0092 27.118C31.6747 26.6433 31.6587 25.6445 31.6711 24.4845C31.6747 24.1622 31.68 23.7637 31.6534 23.6628C31.5685 23.5051 31.4658 23.4042 31.3738 23.3387L31.3649 23.684C31.3968 23.7672 31.4056 23.8753 31.3614 23.9939C31.2516 24.2826 30.8586 24.5252 30.1276 24.7608C29.1717 25.0689 27.66 25.3452 25.635 25.5843C23.9976 25.7773 22.2947 25.7897 20.5777 25.6232C19.2041 25.4904 17.8163 25.2425 16.4533 24.8865C14.4513 24.3658 13.1166 23.7761 12.7431 23.6025C12.6121 23.6964 12.5449 23.9479 12.5112 24.1586C12.444 24.5766 12.4652 25.1185 12.4864 25.4904C12.5165 26.0129 12.3572 26.3405 12.2032 26.6557C12.0545 26.9639 11.9112 27.2579 11.9094 27.7839Z" fill="#1A1A5A"/>
<path d="M30.7472 35.091C30.7419 35.0998 30.7366 35.1104 30.7295 35.1193C30.4498 35.5532 28.8213 35.879 27.8105 35.7267C27.5486 35.6878 27.3291 35.6152 27.1839 35.5071C26.467 34.9634 27.299 33.4245 26.9379 32.0856C26.8529 31.7721 26.7644 31.5171 26.6794 31.278C26.3997 30.5023 26.1431 29.9197 26.0917 28.1575C26.051 26.7708 26.598 25.9243 26.2457 25.5028C26.2103 25.4603 26.159 25.4302 26.0971 25.4072C25.7607 25.2814 25.1288 25.3965 25.2173 25.2814C25.9271 24.3517 26.467 24.5589 26.7502 24.5801C27.3273 24.6244 27.522 24.658 28.3699 24.3322C28.8638 24.1427 29.4886 24.2649 29.6833 24.7466C29.6975 24.7785 29.7081 24.8139 29.717 24.8493C30.0055 25.9739 29.9843 27.04 29.9648 28.0158C29.9453 29.0165 29.9311 29.9232 30.2515 30.7095C30.2781 30.7715 30.3046 30.8353 30.3365 30.8955C30.3772 30.9787 30.4162 31.0637 30.4533 31.1505C31.1047 32.6859 31.0145 34.5614 30.7472 35.091Z" fill="#A4BC46"/>
<g opacity="0.3">
<g opacity="0.3">
<g opacity="0.3">
<path opacity="0.3" d="M30.7472 35.0928C30.7419 35.1016 30.7366 35.1123 30.7295 35.1211C30.2091 35.3124 29.5895 35.5302 29.5223 35.5409C29.4497 35.5532 28.5381 35.6595 27.8105 35.7286C27.5486 35.6896 27.3291 35.617 27.1839 35.509C26.467 34.9653 27.299 33.4263 26.9379 32.0874C26.8529 31.774 26.7644 31.5189 26.6794 31.2798C26.7538 31.1063 26.7998 30.9965 26.7998 30.9965C26.7998 30.9965 27.43 31.7297 27.5273 33.1854C27.6265 34.6394 30.179 34.2268 30.5047 33.4316C30.6711 33.026 30.356 31.294 30.0993 30.7007C30.0214 30.5219 30.1011 30.5661 30.2516 30.7149C30.2781 30.7769 30.3047 30.8406 30.3365 30.9009C31.1154 32.4717 31.0286 34.5314 30.7472 35.0928Z" fill="#1A1A5A"/>
</g>
</g>
</g>
<g opacity="0.6">
<g opacity="0.6">
<g opacity="0.6">
<path opacity="0.6" d="M29.7612 24.9537C29.1258 24.3427 27.6831 25.3345 26.9166 25.1255C26.4174 24.9891 26.1944 25.2176 26.0971 25.4071C25.7607 25.2813 25.1288 25.3965 25.2173 25.2813C25.9271 24.3516 26.467 24.5588 26.7502 24.58C27.3273 24.6243 27.522 24.658 28.3699 24.3321C28.8638 24.1461 29.5665 24.472 29.7612 24.9537Z" fill="white"/>
</g>
</g>
</g>
<path d="M28.3681 36.0117C28.3327 36.0117 28.2973 36.0117 28.2637 36.0099C27.7025 35.9975 27.2901 35.8948 27.037 35.7035C26.5307 35.3192 26.6174 34.6197 26.7077 33.8776C26.775 33.3286 26.8529 32.707 26.7024 32.1509C26.6015 31.7772 26.4953 31.485 26.3926 31.2052C26.1377 30.5074 25.897 29.8468 25.8474 28.1679C25.828 27.5003 25.9377 26.9601 26.0244 26.5262C26.1059 26.1207 26.1714 25.8001 26.0581 25.6637C26.0563 25.662 26.0191 25.6283 25.8704 25.6071C25.7501 25.5894 25.6102 25.5894 25.4881 25.5876C25.2456 25.5858 25.0721 25.5841 24.9907 25.4176C24.9464 25.3273 24.9588 25.2175 25.0225 25.1342C25.7377 24.1974 26.3484 24.2806 26.6776 24.3249C26.7148 24.3302 26.7449 24.3337 26.7697 24.3355L26.8475 24.3408C27.3414 24.3798 27.5255 24.3939 28.2831 24.1035C28.6743 23.953 29.2142 23.9955 29.6267 24.2098C29.9293 24.3656 30.1258 24.5923 30.1949 24.865C30.4976 26.0516 30.4108 27.1567 30.3347 28.1307C30.2551 29.1526 30.186 30.0346 30.556 30.7855C30.9118 31.5063 31.1348 32.4201 31.1826 33.3587C31.2233 34.1326 31.1366 34.8552 30.9631 35.1988C30.7914 35.5406 30.1984 35.7407 29.7311 35.8505C29.2974 35.955 28.8053 36.0117 28.3681 36.0117ZM26.4333 25.3467C26.6989 25.6637 26.6139 26.087 26.5059 26.6219C26.4227 27.031 26.32 27.5392 26.3378 28.152C26.3855 29.7512 26.6015 30.3463 26.8529 31.0352C26.9591 31.3256 27.0688 31.6267 27.175 32.0216C27.3503 32.6698 27.2671 33.3428 27.1945 33.9378C27.1184 34.5612 27.0511 35.0978 27.3326 35.3103C27.6636 35.5618 28.6903 35.5902 29.6231 35.3741C30.2781 35.2218 30.4976 35.0394 30.5277 34.9809C30.6374 34.7649 30.7348 34.1734 30.694 33.3871C30.648 32.514 30.4445 31.6674 30.117 31.0068C29.6851 30.1337 29.763 29.1438 29.8462 28.0953C29.924 27.1124 30.0037 26.0959 29.7205 24.989C29.678 24.8208 29.524 24.711 29.4018 24.649C29.1151 24.5002 28.7186 24.4648 28.4601 24.5657C27.5999 24.8969 27.352 24.8774 26.8104 24.8349L26.7325 24.8296C26.6918 24.8261 26.6528 24.8208 26.6104 24.8154C26.3873 24.7853 26.097 24.7446 25.7094 25.1023C25.9784 25.1112 26.2723 25.1555 26.4333 25.3467Z" fill="#1A1A5A"/>
<path d="M30.9065 16.9914C26.7025 17.7317 21.408 17.7954 17.6465 17.7157C17.6323 17.7157 17.6181 17.7157 17.6022 17.7157C17.404 17.7104 17.2092 17.7069 17.0216 17.7015C16.9048 17.698 15.7029 22.3982 15.5896 22.3929C12.1856 22.253 12.8689 17.5138 12.8689 17.5138C12.8689 17.5138 12.86 17.3066 12.8636 16.9577C12.8724 16.0421 12.9645 14.1472 13.5203 12.4222C13.9433 11.1046 14.6372 9.8897 15.7701 9.28579C17.2128 8.51718 20.1246 8.25685 22.7533 8.19132C25.5076 8.12225 27.5698 8.54906 28.901 9.40976C29.3594 9.70552 29.7188 10.1376 29.9984 10.6459C31.2889 12.9925 30.9065 16.9914 30.9065 16.9914Z" fill="#A4BC46"/>
<g opacity="0.35">
<g opacity="0.35">
<g opacity="0.35">
<path opacity="0.35" d="M29.9966 10.6459C29.763 10.9062 27.3609 9.15474 24.95 9.0715C18.4802 8.84836 15.963 9.91095 13.5185 12.4222C13.9415 11.1046 14.6354 9.8897 15.7683 9.28579C17.211 8.51718 20.1229 8.25685 22.7515 8.19132C25.5076 8.12225 27.5698 8.54906 28.9009 9.40976C29.3594 9.70552 29.717 10.1376 29.9966 10.6459Z" fill="white"/>
</g>
</g>
</g>
<g opacity="0.3">
<g opacity="0.3">
<g opacity="0.3">
<path opacity="0.3" d="M17.6022 17.7139C17.404 17.7086 17.2092 17.705 17.0216 17.6997C16.9048 17.6962 15.7029 22.3964 15.5896 22.3911C12.1856 22.2512 12.8689 17.512 12.8689 17.512C12.8689 17.512 12.86 17.3048 12.8636 16.9559C12.9698 17.8396 13.2459 18.5108 13.8354 18.5321C15.1771 18.5781 16.9844 14.3313 16.9844 14.3313L17.6022 17.7139Z" fill="#1A1A5A"/>
</g>
</g>
</g>
<path d="M12.5131 18.8828C12.5131 18.8633 12.4936 16.878 12.8653 14.7033C13.0848 13.4193 13.3964 12.3177 13.7893 11.4322C14.2938 10.297 14.9399 9.50539 15.7099 9.07858C16.3967 8.69782 17.4606 8.41269 18.8714 8.23028C20.0096 8.08329 21.3974 8.00359 22.8843 8.00005C24.7819 7.99474 27.4618 8.41623 29.2922 9.60988C30.264 10.2439 30.8446 11.7209 31.0216 14.0002C31.1508 15.6614 31.0127 17.1207 31.0056 17.1809L30.5171 17.1331C30.5189 17.1189 30.6569 15.649 30.5312 14.0303C30.3684 11.9441 29.8462 10.5574 29.0231 10.019C27.2831 8.88377 24.7128 8.4853 22.8843 8.48884C20.969 8.49416 17.5208 8.63229 15.9454 9.50539C15.2709 9.87907 14.6974 10.591 14.2372 11.6253C13.8601 12.4736 13.561 13.5326 13.3486 14.7759C12.9839 16.9064 13.0034 18.8545 13.0034 18.8739L12.5131 18.8828Z" fill="#1A1A5A"/>
<path d="M18.0076 17.9956C17.5173 17.9797 17.1508 17.8345 16.9172 17.5653C16.6623 17.2713 16.5702 16.8392 16.6357 16.2441C16.6605 16.0121 16.703 15.7837 16.7473 15.541C16.8499 14.9796 16.9667 14.3456 16.9243 13.3928L17.4146 13.3716C17.4588 14.3793 17.3367 15.0434 17.2287 15.6296C17.1862 15.8616 17.1455 16.0812 17.1225 16.2973C17.073 16.7489 17.1278 17.0588 17.2871 17.243C17.4288 17.4059 17.6695 17.4927 18.0217 17.5033L18.0076 17.9956Z" fill="#1A1A5A"/>
<path d="M16.9313 17.5615C16.9313 17.5615 17.6853 22.136 15.9825 23.3828C14.7328 24.2984 12.2475 23.8733 12.3112 21.1283C12.3466 19.5751 12.582 18.6861 12.7502 18.3461C12.7502 18.3461 12.9095 22.0829 14.2814 21.6437C16.1276 21.0504 14.7416 18.3213 15.3735 17.1294C16.0019 15.9358 16.8374 17.202 16.9313 17.5615Z" fill="white"/>
<g opacity="0.3">
<g opacity="0.3">
<g opacity="0.3">
<path opacity="0.3" d="M15.9826 23.3812C14.793 24.2525 12.4866 23.909 12.3184 21.511C13.0017 22.9615 14.793 23.1191 15.7188 22.3204C16.9137 21.2861 16.2658 17.5989 16.0728 16.6355C16.4994 16.7134 16.8729 17.328 16.9314 17.56C16.9314 17.5617 17.6854 22.1362 15.9826 23.3812Z" fill="#1A1A5A"/>
</g>
</g>
</g>
<path d="M14.5699 24.0417C14.0442 24.0417 13.5078 23.9142 13.0547 23.6539C12.1413 23.1332 11.7023 22.1946 11.8174 21.0133C11.9236 19.933 12.3431 18.6136 12.5272 18.2364L13.014 17.2499L12.9927 18.3497C12.9927 18.3621 12.9715 19.5912 13.1697 20.5334C13.3414 21.3445 13.8477 21.4507 14.2442 21.3976C14.816 21.3215 14.8496 20.7423 14.7894 19.5345C14.7522 18.796 14.7151 18.0327 15.0036 17.4873C15.4037 16.731 15.9595 16.7222 16.2569 16.7842C16.6817 16.8727 17.1348 17.2429 17.172 17.5245C17.1879 17.6272 17.3614 18.734 17.3384 20.0056C17.3048 21.8103 16.8959 23.0128 16.1241 23.5777C15.7081 23.8876 15.147 24.0417 14.5699 24.0417ZM12.5573 19.7187C12.4475 20.1491 12.3484 20.629 12.3059 21.0611C12.1838 22.3132 12.7768 22.9313 13.2972 23.227C14.0778 23.6733 15.193 23.6539 15.8356 23.1828C16.4675 22.7205 16.818 21.619 16.8481 19.9985C16.8711 18.796 16.7065 17.7175 16.6888 17.6095C16.6357 17.5156 16.3507 17.2623 16.0498 17.2553C15.8126 17.2482 15.6072 17.4058 15.4408 17.7193C15.216 18.1461 15.2496 18.8403 15.2833 19.5133C15.3098 20.0517 15.3346 20.5599 15.239 20.9814C15.1169 21.5163 14.8053 21.8209 14.3132 21.8882C13.9362 21.9395 13.591 21.8652 13.3149 21.6739C13.0016 21.4578 12.7927 21.1089 12.6936 20.6379C12.6281 20.3403 12.5856 20.0216 12.5573 19.7187Z" fill="#1A1A5A"/>
<path d="M30.7401 16.2707C30.4056 17.2412 29.7329 17.4467 29.3116 17.5388C28.8903 17.6291 19.1387 17.7849 18.0872 17.7513C17.0375 17.7176 16.7809 17.1403 16.8817 16.2707C16.9472 15.704 17.1243 15.1479 17.1809 14.3209C17.2004 14.0428 17.2057 13.7329 17.1898 13.3822C17.0977 11.3757 16.864 10.8409 18.3952 10.2192C21.8045 8.83432 28.7239 10.1413 29.4001 10.5239C29.8674 10.7877 30.2215 11.3102 30.4711 11.9495V11.9513C31.0216 13.3504 31.0747 15.302 30.7401 16.2707Z" fill="white"/>
<g opacity="0.3">
<g opacity="0.3">
<g opacity="0.3">
<path opacity="0.3" d="M30.7401 16.2706C30.4056 17.2411 29.7329 17.4466 29.3116 17.5387C28.8903 17.629 19.1387 17.7848 18.0872 17.7512C17.0375 17.7175 16.7809 17.1402 16.8817 16.2706C16.9472 15.7039 17.1243 15.1478 17.1809 14.3208C17.5278 17.5936 27.1574 16.4105 29.2939 15.5675C30.8923 14.9371 30.7224 13.0439 30.4728 11.9512C31.0216 13.3503 31.0747 15.3019 30.7401 16.2706Z" fill="#1A1A5A"/>
</g>
</g>
</g>
<path d="M14.9204 16.9665L16.887 16.9063L17.0977 14.2144L15.0797 15.0609L14.9204 16.9665Z" fill="#A4BC46"/>
<path d="M14.8001 17.2661C13.1627 17.2661 12.7397 16.9845 12.6565 16.9119L12.984 16.5453C12.984 16.5453 12.9804 16.5418 12.9716 16.5347C12.9733 16.5364 13.1433 16.6498 13.7327 16.7206C14.4992 16.8109 15.5861 16.7897 16.9597 16.6533L17.0075 17.1421C16.0976 17.2324 15.3736 17.2661 14.8001 17.2661Z" fill="#1A1A5A"/>
<path d="M18.5333 18.0009C18.3191 18.0009 18.1633 17.9991 18.0819 17.9973C17.542 17.9796 17.1597 17.8326 16.9119 17.5457C16.6587 17.2517 16.5667 16.8249 16.634 16.244C16.6605 16.0156 16.6994 15.7924 16.7402 15.5551C16.8375 14.9902 16.949 14.3508 16.942 13.3857C16.942 13.2759 16.9366 13.1537 16.9313 13.0244C16.9136 12.5303 16.8906 11.914 17.0517 11.3419C17.2482 10.6477 17.6854 10.1607 18.351 9.89149C20.3796 9.06975 23.3463 9.23268 24.9359 9.40092C27.0229 9.62407 29.0921 10.1075 29.6497 10.5043C30.5012 11.1099 31.0074 12.0822 31.1543 13.3945C31.2818 14.535 31.1083 15.7322 31.0233 16.3078C30.949 16.8232 30.7313 17.2075 30.3773 17.4483C30.0834 17.6502 29.7577 17.7104 29.5205 17.7565C29.4763 17.7653 29.4355 17.7724 29.4001 17.7795C28.9594 17.8751 20.6999 18.0009 18.5333 18.0009ZM22.4471 9.75335C21.1248 9.75335 19.6697 9.88795 18.5386 10.3466C17.3438 10.8301 17.3898 12.0362 17.4252 13.0049C17.4305 13.1377 17.4341 13.2635 17.4358 13.3803C17.4429 14.388 17.3278 15.0522 17.2269 15.6366C17.188 15.8668 17.1491 16.0847 17.1243 16.2989C17.0729 16.7364 17.1261 17.0374 17.2854 17.2234C17.4358 17.3987 17.7084 17.4926 18.0979 17.505C19.0803 17.5369 28.8142 17.3846 29.2975 17.2978C29.34 17.2889 29.3824 17.2801 29.4302 17.2712C29.8692 17.188 30.4162 17.0835 30.5401 16.2352C30.7171 15.015 31.1331 12.1601 29.3683 10.9045C28.9965 10.6388 27.2317 10.1394 24.8881 9.88972C24.2491 9.82065 23.3799 9.75335 22.4471 9.75335Z" fill="#1A1A5A"/>
<path d="M31.7526 23.3688L31.4127 23.0146C33.2537 21.2454 30.4816 16.9064 30.4533 16.8621L30.8658 16.5947C30.8959 16.6425 31.6216 17.7689 32.1066 19.1538C32.3969 19.9791 32.5386 20.7247 32.5315 21.3693C32.5226 22.207 32.2606 22.88 31.7526 23.3688Z" fill="#1A1A5A"/>
</svg>
